M48
METRIC,LZ,000.000
;FILE_FORMAT=3:3
;TYPE=PLATED
;Layer: PTH_Through
;EasyEDA v6.5.22, 2023-04-13 12:14:21
;8c6dcb5ec9fe4ba2bbc49dbc1e847b49,f016fa541b524367aba1ea0f7d3472e8,10
;Gerber Generator version 0.2
;Holesize 1 = 0.600 mm
T01C0.600
;Holesize 2 = 0.712 mm
T02C0.712
;Holesize 3 = 0.901 mm
T03C0.901
;Holesize 4 = 0.915 mm
T04C0.915
%
G05
G90
T01
X001915Y079896G85X002515Y079896
X008915Y079896G85X009515Y079896
X003915Y084696G85X004515Y084696
X001915Y068684G85X002515Y068684
X008915Y068684G85X009515Y068684
X003915Y073484G85X004515Y073484
X001915Y057471G85X002515Y057471
X008915Y057471G85X009515Y057471
X003915Y062271G85X004515Y062271
X001915Y046259G85X002515Y046259
X008915Y046259G85X009515Y046259
X003915Y051059G85X004515Y051059
X001915Y035047G85X002515Y035047
X008915Y035047G85X009515Y035047
X003915Y039847G85X004515Y039847
X001915Y023835G85X002515Y023835
X008915Y023835G85X009515Y023835
X003915Y028635G85X004515Y028635
X001915Y012622G85X002515Y012622
X008915Y012622G85X009515Y012622
X003915Y017422G85X004515Y017422
X001915Y001410G85X002515Y001410
X008915Y001410G85X009515Y001410
X003915Y006210G85X004515Y006210
T02
X018161Y070485
X020701Y070485
X023241Y070485
X025781Y070485
X028321Y070485
X030861Y070485
X033401Y070485
X033401Y078105
X030861Y078105
X028321Y078105
X025781Y078105
X023241Y078105
X020701Y078105
X018161Y078105
X019050Y043434
X021590Y043434
X024130Y043434
X026670Y043434
X029210Y043434
X031750Y043434
X034290Y043434
X034290Y051054
X031750Y051054
X029210Y051054
X026670Y051054
X024130Y051054
X021590Y051054
X019050Y051054
T03
X001651Y088392
X004191Y088392
X006731Y088392
X009271Y088392
X011811Y088392
X014351Y088392
X016891Y088392
X019431Y088392
X021971Y088392
X024511Y088392
X027051Y088392
X029591Y088392
X032131Y088392
X034671Y088392
X034671Y103632
X032131Y103632
X029591Y103632
X027051Y103632
X024511Y103632
X021971Y103632
X019431Y103632
X016891Y103632
X014351Y103632
X011811Y103632
X009271Y103632
X006731Y103632
X004191Y103632
X001651Y103632
T04
X032766Y006855G85X032766Y006861
X030226Y006855G85X030226Y006861
X032766Y009395G85X032766Y009401
X030226Y009395G85X030226Y009401
X032766Y011935G85X032766Y011941
X030226Y011935G85X030226Y011941
X032766Y014475G85X032766Y014481
X030226Y014475G85X030226Y014481
X032766Y017015G85X032766Y017021
X030226Y017015G85X030226Y017021
X021653Y004382
X021653Y006922
X021653Y009462
M30
