M48
METRIC,LZ,000.000
;FILE_FORMAT=3:3
;TYPE=PLATED
;Layer: PTH_Through_Via
;EasyEDA v6.5.22, 2023-04-13 12:14:21
;8c6dcb5ec9fe4ba2bbc49dbc1e847b49,f016fa541b524367aba1ea0f7d3472e8,10
;Gerber Generator version 0.2
;Holesize 1 = 0.305 mm
T01C0.305
%
G05
G90
T01
X015898Y061037
X028664Y061162
X034732Y061228
X032260Y066613
X020945Y064216
X027035Y061299
X015297Y065587
X021042Y033175
X014961Y027646
X029916Y040853
X014466Y019177
X018657Y013381
X020305Y065549
X028485Y059057
X034667Y058941
X010685Y068104
X022588Y044172
X019535Y035150
X028622Y035663
X036249Y050499
X015249Y082903
X020264Y084328
X027017Y085225
X032902Y085940
X020752Y059074
X030861Y060548
X016120Y067873
X024391Y077616
X033890Y064554
X029089Y069589
X020796Y055451
X026978Y053638
X032273Y054497
X017243Y029913
X021005Y036855
X032036Y039332
X033430Y039853
M30
