G04 Layer: BottomSolderMaskLayer*
G04 EasyEDA v6.5.22, 2023-04-13 12:14:21*
G04 8c6dcb5ec9fe4ba2bbc49dbc1e847b49,f016fa541b524367aba1ea0f7d3472e8,10*
G04 Gerber Generator version 0.2*
G04 Scale: 100 percent, Rotated: No, Reflected: No *
G04 Dimensions in millimeters *
G04 leading zeros omitted , absolute positions ,4 integer and 5 decimal *
%FSLAX45Y45*%
%MOMM*%

%AMMACRO1*4,1,8,-0.3607,-0.8712,-0.8712,-0.3607,-0.8712,0.3607,-0.3607,0.8712,0.3607,0.8712,0.8712,0.3607,0.8712,-0.3607,0.3607,-0.8712,-0.3607,-0.8712,0*%
%AMMACRO2*1,1,$1,$2,$3*1,1,$1,$4,$5*1,1,$1,0-$2,0-$3*1,1,$1,0-$4,0-$5*20,1,$1,$2,$3,$4,$5,0*20,1,$1,$4,$5,0-$2,0-$3,0*20,1,$1,0-$2,0-$3,0-$4,0-$5,0*20,1,$1,0-$4,0-$5,$2,$3,0*4,1,4,$2,$3,$4,$5,0-$2,0-$3,0-$4,0-$5,$2,$3,0*%
%ADD10O,1.9015964X1.3015976000000002*%
%ADD11MACRO1*%
%ADD12C,1.5032*%
%ADD13C,1.6256*%
%ADD14MACRO2,0.1016X-0.6985X0.6985X0.6985X0.6985*%
%ADD15C,1.4986*%

%LPD*%
D10*
G01*
X221513Y7989595D03*
G01*
X921512Y7989595D03*
G01*
X421512Y8469604D03*
G01*
X221513Y6868388D03*
G01*
X921512Y6868388D03*
G01*
X421512Y7348397D03*
G01*
X221513Y5747130D03*
G01*
X921512Y5747130D03*
G01*
X421512Y6227140D03*
G01*
X221513Y4625924D03*
G01*
X921512Y4625924D03*
G01*
X421512Y5105933D03*
G01*
X221513Y3504666D03*
G01*
X921512Y3504666D03*
G01*
X421512Y3984675D03*
G01*
X221513Y2383459D03*
G01*
X921512Y2383459D03*
G01*
X421512Y2863469D03*
G01*
X221513Y1262227D03*
G01*
X921512Y1262227D03*
G01*
X421512Y1742236D03*
G01*
X221513Y140995D03*
G01*
X921512Y140995D03*
G01*
X421512Y621004D03*
D11*
G01*
X3276600Y685800D03*
G01*
X3022600Y685800D03*
G01*
X3276600Y939800D03*
G01*
X3022600Y939800D03*
G01*
X3276600Y1193800D03*
G01*
X3022600Y1193800D03*
G01*
X3276600Y1447800D03*
G01*
X3022600Y1447800D03*
G01*
X3276600Y1701800D03*
G01*
X3022600Y1701800D03*
D12*
G01*
X165100Y8839200D03*
G01*
X419100Y8839200D03*
G01*
X673100Y8839200D03*
G01*
X927100Y8839200D03*
G01*
X1181100Y8839200D03*
G01*
X1435100Y8839200D03*
G01*
X1689100Y8839200D03*
G01*
X1943100Y8839200D03*
G01*
X2197100Y8839200D03*
G01*
X2451100Y8839200D03*
G01*
X2705100Y8839200D03*
G01*
X2959100Y8839200D03*
G01*
X3213100Y8839200D03*
G01*
X3467100Y8839200D03*
G01*
X3467100Y10363200D03*
G01*
X3213100Y10363200D03*
G01*
X2959100Y10363200D03*
G01*
X2705100Y10363200D03*
G01*
X2451100Y10363200D03*
G01*
X2197100Y10363200D03*
G01*
X1943100Y10363200D03*
G01*
X1689100Y10363200D03*
G01*
X1435100Y10363200D03*
G01*
X1181100Y10363200D03*
G01*
X927100Y10363200D03*
G01*
X673100Y10363200D03*
G01*
X419100Y10363200D03*
G01*
X165100Y10363200D03*
D13*
G01*
X2165350Y438175D03*
G01*
X2165350Y692175D03*
G01*
X2165350Y946175D03*
D14*
G01*
X1816100Y7048500D03*
D15*
G01*
X2070100Y7048500D03*
G01*
X2324100Y7048500D03*
G01*
X2578100Y7048500D03*
G01*
X2832100Y7048500D03*
G01*
X3086100Y7048500D03*
G01*
X3340100Y7048500D03*
G01*
X3340100Y7810500D03*
G01*
X3086100Y7810500D03*
G01*
X2832100Y7810500D03*
G01*
X2578100Y7810500D03*
G01*
X2324100Y7810500D03*
G01*
X2070100Y7810500D03*
G01*
X1816100Y7810500D03*
D14*
G01*
X1905000Y4343400D03*
D15*
G01*
X2159000Y4343400D03*
G01*
X2413000Y4343400D03*
G01*
X2667000Y4343400D03*
G01*
X2921000Y4343400D03*
G01*
X3175000Y4343400D03*
G01*
X3429000Y4343400D03*
G01*
X3429000Y5105400D03*
G01*
X3175000Y5105400D03*
G01*
X2921000Y5105400D03*
G01*
X2667000Y5105400D03*
G01*
X2413000Y5105400D03*
G01*
X2159000Y5105400D03*
G01*
X1905000Y5105400D03*
M02*
