G04 Layer: TopSolderMaskLayer*
G04 EasyEDA v6.5.22, 2023-04-13 12:14:21*
G04 8c6dcb5ec9fe4ba2bbc49dbc1e847b49,f016fa541b524367aba1ea0f7d3472e8,10*
G04 Gerber Generator version 0.2*
G04 Scale: 100 percent, Rotated: No, Reflected: No *
G04 Dimensions in millimeters *
G04 leading zeros omitted , absolute positions ,4 integer and 5 decimal *
%FSLAX45Y45*%
%MOMM*%

%AMMACRO1*1,1,$1,$2,$3*1,1,$1,$4,$5*1,1,$1,0-$2,0-$3*1,1,$1,0-$4,0-$5*20,1,$1,$2,$3,$4,$5,0*20,1,$1,$4,$5,0-$2,0-$3,0*20,1,$1,0-$2,0-$3,0-$4,0-$5,0*20,1,$1,0-$4,0-$5,$2,$3,0*4,1,4,$2,$3,$4,$5,0-$2,0-$3,0-$4,0-$5,$2,$3,0*%
%AMMACRO2*4,1,8,-0.3607,-0.8712,-0.8712,-0.3607,-0.8712,0.3607,-0.3607,0.8712,0.3607,0.8712,0.8712,0.3607,0.8712,-0.3607,0.3607,-0.8712,-0.3607,-0.8712,0*%
%ADD10MACRO1,0.1016X-0.4X0.45X0.4X0.45*%
%ADD11MACRO1,0.1016X-0.475X0.575X0.475X0.575*%
%ADD12MACRO1,0.1016X0.475X-0.575X-0.475X-0.575*%
%ADD13O,1.9015964X1.3015976000000002*%
%ADD14MACRO1,0.1016X-0.4032X-0.432X-0.4032X0.432*%
%ADD15MACRO1,0.1016X0.4032X-0.432X0.4032X0.432*%
%ADD16MACRO2*%
%ADD17C,1.5032*%
%ADD18C,1.6256*%
%ADD19MACRO1,0.1016X-0.6985X0.6985X0.6985X0.6985*%
%ADD20C,1.4986*%

%LPD*%
D10*
G01*
X1593999Y2032000D03*
G01*
X1454000Y2032000D03*
G01*
X1608739Y6248400D03*
G01*
X1468739Y6248400D03*
G01*
X2226127Y6223000D03*
G01*
X2086127Y6223000D03*
G01*
X2843514Y6223508D03*
G01*
X2703515Y6223508D03*
G01*
X3460899Y6223508D03*
G01*
X3320900Y6223508D03*
G01*
X1596039Y3441700D03*
G01*
X1456039Y3441700D03*
G01*
X2226635Y3441700D03*
G01*
X2086635Y3441700D03*
G01*
X2857235Y3441700D03*
G01*
X2717236Y3441700D03*
G01*
X3487836Y3441700D03*
G01*
X3347836Y3441700D03*
D11*
G01*
X3509340Y2594729D03*
G01*
X3170859Y2594729D03*
D12*
G01*
X1430959Y1358900D03*
G01*
X1769440Y1358900D03*
D13*
G01*
X221513Y7989595D03*
G01*
X921512Y7989595D03*
G01*
X421512Y8469604D03*
G01*
X221513Y6868388D03*
G01*
X921512Y6868388D03*
G01*
X421512Y7348397D03*
G01*
X221513Y5747130D03*
G01*
X921512Y5747130D03*
G01*
X421512Y6227140D03*
G01*
X221513Y4625924D03*
G01*
X921512Y4625924D03*
G01*
X421512Y5105933D03*
G01*
X221513Y3504666D03*
G01*
X921512Y3504666D03*
G01*
X421512Y3984675D03*
G01*
X221513Y2383459D03*
G01*
X921512Y2383459D03*
G01*
X421512Y2863469D03*
G01*
X221513Y1262227D03*
G01*
X921512Y1262227D03*
G01*
X421512Y1742236D03*
G01*
X221513Y140995D03*
G01*
X921512Y140995D03*
G01*
X421512Y621004D03*
D14*
G01*
X1597277Y1619250D03*
D15*
G01*
X1446627Y1619250D03*
D14*
G01*
X1675524Y8432800D03*
D15*
G01*
X1524875Y8432800D03*
D14*
G01*
X2263961Y8432800D03*
D15*
G01*
X2113311Y8432800D03*
D14*
G01*
X2852388Y8432800D03*
D15*
G01*
X2701738Y8432800D03*
D14*
G01*
X3440824Y8432800D03*
D15*
G01*
X3290175Y8432800D03*
D14*
G01*
X1675524Y8058150D03*
D15*
G01*
X1524875Y8058150D03*
D14*
G01*
X2263959Y8058150D03*
D15*
G01*
X2113309Y8058150D03*
D14*
G01*
X2852390Y8058150D03*
D15*
G01*
X2701740Y8058150D03*
D14*
G01*
X3440824Y8058150D03*
D15*
G01*
X3290175Y8058150D03*
D14*
G01*
X1612024Y6648450D03*
D15*
G01*
X1461375Y6648450D03*
D14*
G01*
X2230260Y6648450D03*
D15*
G01*
X2079611Y6648450D03*
D14*
G01*
X2848484Y6648450D03*
D15*
G01*
X2697834Y6648450D03*
D14*
G01*
X3466720Y6648450D03*
D15*
G01*
X3316070Y6648450D03*
D14*
G01*
X1612024Y5854700D03*
D15*
G01*
X1461375Y5854700D03*
D14*
G01*
X2230255Y5816600D03*
D15*
G01*
X2079605Y5816600D03*
D14*
G01*
X2848489Y5816600D03*
D15*
G01*
X2697839Y5816600D03*
D14*
G01*
X3466720Y5803900D03*
D15*
G01*
X3316070Y5803900D03*
D14*
G01*
X1612024Y5455157D03*
D15*
G01*
X1461375Y5455157D03*
D14*
G01*
X2230260Y5455157D03*
D15*
G01*
X2079611Y5455157D03*
D14*
G01*
X2848484Y5455157D03*
D15*
G01*
X2697834Y5455157D03*
D14*
G01*
X3466720Y5455157D03*
D15*
G01*
X3316070Y5455157D03*
D14*
G01*
X2468258Y2594729D03*
D15*
G01*
X2317609Y2594729D03*
D14*
G01*
X2399424Y2032000D03*
D15*
G01*
X2248775Y2032000D03*
D14*
G01*
X1599324Y2594729D03*
D15*
G01*
X1448675Y2594729D03*
D14*
G01*
X1599324Y3048000D03*
D15*
G01*
X1448675Y3048000D03*
D14*
G01*
X2230774Y3048000D03*
D15*
G01*
X2080124Y3048000D03*
D14*
G01*
X2862210Y3048000D03*
D15*
G01*
X2711560Y3048000D03*
D14*
G01*
X3493659Y3060700D03*
D15*
G01*
X3343009Y3060700D03*
D14*
G01*
X2399424Y1619250D03*
D15*
G01*
X2248775Y1619250D03*
D14*
G01*
X1599324Y3810000D03*
D15*
G01*
X1448675Y3810000D03*
D14*
G01*
X2230768Y3810000D03*
D15*
G01*
X2080119Y3810000D03*
D14*
G01*
X2862215Y3810000D03*
D15*
G01*
X2711565Y3810000D03*
D14*
G01*
X3493659Y3810000D03*
D15*
G01*
X3343009Y3810000D03*
D16*
G01*
X3276600Y685800D03*
G01*
X3022600Y685800D03*
G01*
X3276600Y939800D03*
G01*
X3022600Y939800D03*
G01*
X3276600Y1193800D03*
G01*
X3022600Y1193800D03*
G01*
X3276600Y1447800D03*
G01*
X3022600Y1447800D03*
G01*
X3276600Y1701800D03*
G01*
X3022600Y1701800D03*
D17*
G01*
X165100Y8839200D03*
G01*
X419100Y8839200D03*
G01*
X673100Y8839200D03*
G01*
X927100Y8839200D03*
G01*
X1181100Y8839200D03*
G01*
X1435100Y8839200D03*
G01*
X1689100Y8839200D03*
G01*
X1943100Y8839200D03*
G01*
X2197100Y8839200D03*
G01*
X2451100Y8839200D03*
G01*
X2705100Y8839200D03*
G01*
X2959100Y8839200D03*
G01*
X3213100Y8839200D03*
G01*
X3467100Y8839200D03*
G01*
X3467100Y10363200D03*
G01*
X3213100Y10363200D03*
G01*
X2959100Y10363200D03*
G01*
X2705100Y10363200D03*
G01*
X2451100Y10363200D03*
G01*
X2197100Y10363200D03*
G01*
X1943100Y10363200D03*
G01*
X1689100Y10363200D03*
G01*
X1435100Y10363200D03*
G01*
X1181100Y10363200D03*
G01*
X927100Y10363200D03*
G01*
X673100Y10363200D03*
G01*
X419100Y10363200D03*
G01*
X165100Y10363200D03*
D18*
G01*
X2165350Y438175D03*
G01*
X2165350Y692175D03*
G01*
X2165350Y946175D03*
D19*
G01*
X1816100Y7048500D03*
D20*
G01*
X2070100Y7048500D03*
G01*
X2324100Y7048500D03*
G01*
X2578100Y7048500D03*
G01*
X2832100Y7048500D03*
G01*
X3086100Y7048500D03*
G01*
X3340100Y7048500D03*
G01*
X3340100Y7810500D03*
G01*
X3086100Y7810500D03*
G01*
X2832100Y7810500D03*
G01*
X2578100Y7810500D03*
G01*
X2324100Y7810500D03*
G01*
X2070100Y7810500D03*
G01*
X1816100Y7810500D03*
D19*
G01*
X1905000Y4343400D03*
D20*
G01*
X2159000Y4343400D03*
G01*
X2413000Y4343400D03*
G01*
X2667000Y4343400D03*
G01*
X2921000Y4343400D03*
G01*
X3175000Y4343400D03*
G01*
X3429000Y4343400D03*
G01*
X3429000Y5105400D03*
G01*
X3175000Y5105400D03*
G01*
X2921000Y5105400D03*
G01*
X2667000Y5105400D03*
G01*
X2413000Y5105400D03*
G01*
X2159000Y5105400D03*
G01*
X1905000Y5105400D03*
M02*
