G04 Layer: TopLayer*
G04 EasyEDA v6.5.22, 2023-04-13 12:14:21*
G04 8c6dcb5ec9fe4ba2bbc49dbc1e847b49,f016fa541b524367aba1ea0f7d3472e8,10*
G04 Gerber Generator version 0.2*
G04 Scale: 100 percent, Rotated: No, Reflected: No *
G04 Dimensions in millimeters *
G04 leading zeros omitted , absolute positions ,4 integer and 5 decimal *
%FSLAX45Y45*%
%MOMM*%

%AMMACRO1*21,1,$1,$2,0,0,$3*%
%AMMACRO2*4,1,8,-0.3401,0.8214,-0.8214,0.3401,-0.8214,-0.3401,-0.3401,-0.8214,0.3401,-0.8214,0.8214,-0.3401,0.8214,0.3401,0.3401,0.8214,-0.3401,0.8214,0*%
%ADD10C,0.2540*%
%ADD11R,0.8000X0.9000*%
%ADD12R,0.9500X1.1500*%
%ADD13MACRO1,0.864X0.8065X90.0000*%
%ADD14O,1.7999964X1.1999976*%
%ADD15MACRO2*%
%ADD16C,1.3000*%
%ADD17C,1.5240*%
%ADD18R,1.3970X1.3970*%
%ADD19C,1.3970*%
%ADD20C,0.6096*%
%ADD21C,0.0138*%

%LPD*%
D10*
X221513Y4625924D02*
G01*
X131419Y4716018D01*
X131419Y5657037D01*
X221513Y5747130D01*
X221513Y3504666D02*
G01*
X131521Y3594658D01*
X131521Y4535931D01*
X221513Y4625924D01*
X221513Y2383459D02*
G01*
X131876Y2473096D01*
X131876Y3415029D01*
X221513Y3504666D01*
X221513Y2383459D02*
G01*
X133426Y2295372D01*
X133426Y1350314D01*
X221513Y1262227D01*
X221513Y5747130D02*
G01*
X127076Y5841568D01*
X127076Y6868388D01*
X3460902Y6150533D02*
G01*
X3473246Y6138189D01*
X3473246Y6122822D01*
X1608759Y6248400D02*
G01*
X1608759Y6175425D01*
X1608759Y6175425D02*
G01*
X1589760Y6156426D01*
X1589760Y6103721D01*
X3460902Y6223507D02*
G01*
X3460902Y6150533D01*
X2866390Y6116218D02*
G01*
X2843529Y6139078D01*
X2843529Y6223507D01*
X221513Y140995D02*
G01*
X127076Y235432D01*
X127076Y1167790D01*
X221513Y1262227D01*
X1594002Y2104974D02*
G01*
X1530908Y2168067D01*
X1530908Y2716529D01*
X1554657Y2740279D01*
X1554657Y2788843D01*
X1530908Y2812592D01*
X1530908Y3303600D01*
X1596034Y3368725D01*
X2857245Y3441700D02*
G01*
X2789275Y3441700D01*
X2353818Y3500907D02*
G01*
X2486126Y3368598D01*
X2784144Y3368598D01*
X2789275Y3373729D01*
X2789275Y3441700D01*
X2353818Y3500907D02*
G01*
X2413000Y3560089D01*
X2413000Y4343400D01*
X2294610Y3441700D02*
G01*
X2353818Y3500907D01*
X1594002Y2032000D02*
G01*
X1594002Y2104974D01*
X1596034Y3441700D02*
G01*
X1596034Y3368725D01*
X1594002Y2032000D02*
G01*
X1661972Y2032000D01*
X1661972Y2032000D02*
G01*
X2165350Y1528622D01*
X2165350Y946175D01*
X2843529Y6223507D02*
G01*
X2843529Y6296482D01*
X2843529Y6296482D02*
G01*
X2779979Y6360032D01*
X2779979Y6996379D01*
X2832100Y7048500D01*
X2226640Y3441700D02*
G01*
X2294610Y3441700D01*
X3276600Y1447800D02*
G01*
X3276600Y1557909D01*
X3487851Y3441700D02*
G01*
X3555822Y3441700D01*
X3555822Y3441700D02*
G01*
X3590061Y3407460D01*
X3590061Y1848561D01*
X3299409Y1557909D01*
X3276600Y1557909D01*
X127076Y6868388D02*
G01*
X127076Y7895158D01*
X221513Y7989595D01*
X127076Y6868388D02*
G01*
X221513Y6868388D01*
X3276600Y1193800D02*
G01*
X3276600Y939800D01*
X3022600Y1193800D02*
G01*
X3022600Y939800D01*
X3022600Y1447800D02*
G01*
X3022600Y1193800D01*
X419100Y10363200D02*
G01*
X165100Y10109200D01*
X165100Y8839200D01*
X2324100Y7048500D02*
G01*
X2324100Y6253022D01*
X2294077Y6223000D01*
X2832100Y7810500D02*
G01*
X2832100Y7048500D01*
X2226106Y6223000D02*
G01*
X2294077Y6223000D01*
X2413000Y5105400D02*
G01*
X2413000Y6104077D01*
X2294077Y6223000D01*
X2921000Y5105400D02*
G01*
X2921000Y4343400D01*
X3226028Y6661327D02*
G01*
X3230473Y6665772D01*
X3230473Y6665772D02*
G01*
X3247796Y6648450D01*
X3290163Y7986979D02*
G01*
X3230473Y7927289D01*
X3230473Y6665772D01*
X2079599Y6648450D02*
G01*
X2094484Y6633565D01*
X2094484Y6421628D01*
X2074163Y6648450D02*
G01*
X2079599Y6648450D01*
X2074163Y6648450D02*
G01*
X2011324Y6648450D01*
X1373098Y3048000D02*
G01*
X1390522Y3048000D01*
X1971954Y6648450D02*
G01*
X1971954Y5963793D01*
X1529791Y5521629D01*
X1529791Y5229301D01*
X1334338Y5033848D01*
X1334338Y3086760D01*
X1373098Y3048000D01*
X1373098Y3048000D02*
G01*
X1373098Y2044928D01*
X1386027Y2032000D01*
X1453997Y2032000D02*
G01*
X1386027Y2032000D01*
X1971954Y6648450D02*
G01*
X2011324Y6648450D01*
X2045030Y8058150D02*
G01*
X1971954Y7985074D01*
X1971954Y6648450D01*
X1448663Y3048000D02*
G01*
X1390522Y3048000D01*
X2248763Y1548079D02*
G01*
X2331034Y1630349D01*
X2331034Y1833981D01*
X2711551Y2214498D01*
X2711551Y3048000D01*
X2165350Y692175D02*
G01*
X2290343Y817168D01*
X2290343Y1506499D01*
X2248763Y1548079D01*
X1453997Y2032000D02*
G01*
X1521968Y2032000D01*
X1597279Y1619250D02*
G01*
X1528978Y1619250D01*
X1528978Y1619250D02*
G01*
X1521968Y1626260D01*
X1521968Y2032000D01*
X2165350Y692175D02*
G01*
X1597279Y1260246D01*
X1597279Y1619250D01*
X3316071Y6648450D02*
G01*
X3247796Y6648450D01*
X3290163Y8058150D02*
G01*
X3290163Y7986979D01*
X2113305Y8058150D02*
G01*
X2045030Y8058150D01*
X2248763Y1619250D02*
G01*
X2248763Y2032000D01*
X2248763Y1583664D02*
G01*
X2248763Y1619250D01*
X2248763Y1583664D02*
G01*
X2248763Y1548079D01*
X1468754Y6248400D02*
G01*
X1400784Y6248400D01*
X1559026Y8058150D02*
G01*
X1390599Y7889722D01*
X1390599Y6258585D01*
X1400784Y6248400D01*
X1559026Y8058150D02*
G01*
X1593164Y8058150D01*
X1524863Y8058150D02*
G01*
X1559026Y8058150D01*
X1675536Y8432800D02*
G01*
X1607235Y8432800D01*
X1593164Y8058150D02*
G01*
X1593164Y8126450D01*
X1607235Y8140522D01*
X1607235Y8432800D01*
X2086127Y6223000D02*
G01*
X2154072Y6223000D01*
X2298115Y8432800D02*
G01*
X2338273Y8392642D01*
X2338273Y7963179D01*
X2173579Y7798485D01*
X2173579Y7013447D01*
X2154072Y6993940D01*
X2154072Y6223000D01*
X2298115Y8432800D02*
G01*
X2332253Y8432800D01*
X2263978Y8432800D02*
G01*
X2298115Y8432800D01*
X2701721Y8058150D02*
G01*
X2633446Y8058150D01*
X2633446Y8058150D02*
G01*
X2633446Y8131606D01*
X2332253Y8432800D01*
X1529664Y6648450D02*
G01*
X1529664Y6558737D01*
X2703525Y6223507D02*
G01*
X2703525Y6129934D01*
X2852369Y8432800D02*
G01*
X2784093Y8432800D01*
X2703525Y6223507D02*
G01*
X2635554Y6223507D01*
X2635554Y6223507D02*
G01*
X2628823Y6230238D01*
X2628823Y6702628D01*
X2676702Y6750507D01*
X2676702Y7812252D01*
X2770149Y7905699D01*
X2770149Y8418855D01*
X2784093Y8432800D01*
X1461363Y6648450D02*
G01*
X1529664Y6648450D01*
X3247669Y5739993D02*
G01*
X3247669Y6218250D01*
X3252927Y6223507D01*
X3509111Y8432800D02*
G01*
X3543350Y8398560D01*
X3543350Y5746445D01*
X3529507Y5732602D01*
X3255060Y5732602D01*
X3247669Y5739993D01*
X2697835Y6648450D02*
G01*
X2697835Y6384493D01*
X2775458Y6306870D01*
X2775458Y6110096D01*
X2624175Y5958814D01*
X2624175Y5760872D01*
X2645054Y5739993D01*
X3247669Y5739993D01*
X3320897Y6223507D02*
G01*
X3252927Y6223507D01*
X3440836Y8432800D02*
G01*
X3509111Y8432800D01*
X1456029Y3441700D02*
G01*
X1524000Y3441700D01*
X2317597Y2594737D02*
G01*
X2249322Y2594737D01*
X2249322Y2594737D02*
G01*
X1664131Y3179927D01*
X1664131Y3507409D01*
X1656740Y3514801D01*
X1529130Y3514801D01*
X1524000Y3509670D01*
X1524000Y3441700D01*
X1456029Y3441700D02*
G01*
X1388059Y3441700D01*
X1388059Y3441700D02*
G01*
X1380286Y3449472D01*
X1380286Y4976952D01*
X1612011Y5208676D01*
X1612011Y5455157D01*
X2086635Y3441700D02*
G01*
X2086635Y3368725D01*
X2104212Y3317519D02*
G01*
X2104212Y3351148D01*
X2086635Y3368725D01*
X1448663Y2594737D02*
G01*
X1448663Y2717114D01*
X1496110Y2764561D01*
X2230247Y5383987D02*
G01*
X2264943Y5349290D01*
X2264943Y4593640D01*
X2011603Y4340301D01*
X2011603Y3685108D01*
X1888312Y3561816D01*
X1888312Y3480130D01*
X1926742Y3441700D01*
X2018690Y3441700D01*
X2230247Y5455157D02*
G01*
X2230247Y5383987D01*
X2086635Y3441700D02*
G01*
X2018690Y3441700D01*
X2148408Y3048000D02*
G01*
X2154732Y3054324D01*
X2154732Y3285210D01*
X2162759Y3293237D01*
X2162759Y3341801D01*
X2154732Y3349828D01*
X2154732Y3514775D01*
X2312009Y3672052D01*
X2312009Y4386757D01*
X2366695Y4441444D01*
X2475966Y4441444D01*
X2540000Y4377410D01*
X2540000Y4309338D01*
X2663443Y4185920D01*
X2663443Y4185920D02*
G01*
X2807461Y4329937D01*
X2807461Y5342940D01*
X2848508Y5383987D01*
X2649270Y3441700D02*
G01*
X2629408Y3461562D01*
X2629408Y4151884D01*
X2663443Y4185920D01*
X2080107Y3048000D02*
G01*
X2148408Y3048000D01*
X2848508Y5455157D02*
G01*
X2848508Y5383987D01*
X2717241Y3441700D02*
G01*
X2649270Y3441700D01*
X3347847Y3441700D02*
G01*
X3279876Y3441700D01*
X3466744Y5455157D02*
G01*
X3535019Y5455157D01*
X3535019Y5455157D02*
G01*
X3535019Y4304309D01*
X3271291Y4040581D01*
X3271291Y3450285D01*
X3279876Y3441700D01*
X3342995Y3060700D02*
G01*
X3342995Y3131870D01*
X3342995Y3131870D02*
G01*
X3347847Y3136722D01*
X3347847Y3441700D01*
X3276600Y1701800D02*
G01*
X3276600Y1811909D01*
X3276600Y1811909D02*
G01*
X3509340Y2044649D01*
X3509340Y2594737D01*
X3095396Y2594737D02*
G01*
X3095396Y3981500D01*
X2991586Y4085310D01*
X3170859Y2594737D02*
G01*
X3095396Y2594737D01*
X2667000Y4343400D02*
G01*
X2766263Y4442663D01*
X2766263Y5156758D01*
X2578100Y5344921D01*
X2578100Y7048500D01*
X2667000Y5105400D02*
G01*
X2480157Y5292242D01*
X2480157Y7712557D01*
X2578100Y7810500D01*
X1446606Y1619250D02*
G01*
X1446606Y1917700D01*
X1446606Y1619250D02*
G01*
X1446606Y1548079D01*
X1446606Y1548079D02*
G01*
X1430959Y1532432D01*
X1430959Y1444370D01*
X1430959Y1358900D02*
G01*
X1430959Y1444370D01*
X1865655Y1338148D02*
G01*
X1844903Y1358900D01*
X1769440Y1358900D02*
G01*
X1844903Y1358900D01*
X1612036Y5854700D02*
G01*
X1680311Y5854700D01*
X1680311Y5854700D02*
G01*
X1718182Y5892571D01*
X1718182Y7712583D01*
X1816100Y7810500D01*
X2161971Y5816600D02*
G01*
X2161971Y5903417D01*
X2018029Y6047359D01*
X2018029Y6542379D01*
X2030501Y6554851D01*
X2230272Y5816600D02*
G01*
X2161971Y5816600D01*
X421512Y7348397D02*
G01*
X901522Y6868388D01*
X921512Y6868388D01*
X2848508Y5905703D02*
G01*
X2848508Y5816600D01*
X421512Y6227140D02*
G01*
X901522Y5747130D01*
X921512Y5747130D01*
X3466744Y5894146D02*
G01*
X3466744Y5803900D01*
X921512Y4625924D02*
G01*
X1068451Y4772863D01*
X1068451Y6810375D01*
X1905000Y5105400D02*
G01*
X1599336Y4799736D01*
X1599336Y3810000D01*
X2264918Y3810000D02*
G01*
X2264918Y4411065D01*
X2258822Y4417161D01*
X2264918Y3810000D02*
G01*
X2264918Y3740962D01*
X2038934Y3514979D01*
X1953513Y3514979D01*
X2230780Y3810000D02*
G01*
X2264918Y3810000D01*
X2862224Y3566261D02*
G01*
X2862224Y3810000D01*
X3561943Y3810000D02*
G01*
X3624884Y3872941D01*
X3624884Y5049901D01*
X3493668Y3810000D02*
G01*
X3561943Y3810000D01*
X1524863Y8290331D02*
G01*
X1524863Y8432800D01*
X2113330Y8432800D02*
G01*
X2026437Y8432800D01*
X2701721Y8503970D02*
G01*
X2701721Y8522487D01*
X2701721Y8432800D02*
G01*
X2701721Y8503970D01*
X3290163Y8432800D02*
G01*
X3290163Y8593988D01*
X1922602Y8058150D02*
G01*
X1922602Y6024626D01*
X1678990Y5781014D01*
X1535048Y5781014D01*
X1529664Y5786399D01*
X1529664Y5854700D01*
X2195677Y8058150D02*
G01*
X2195677Y8126450D01*
X2192680Y8129447D01*
X1993900Y8129447D01*
X1922602Y8058150D01*
X1922602Y8058150D02*
G01*
X1743811Y8058150D01*
X1461363Y5854700D02*
G01*
X1529664Y5854700D01*
X1675536Y8058150D02*
G01*
X1743811Y8058150D01*
X2263978Y8058150D02*
G01*
X2195677Y8058150D01*
X2263978Y8022564D02*
G01*
X2263978Y8058150D01*
X2263978Y8022564D02*
G01*
X2263978Y7986979D01*
X2070100Y7810500D02*
G01*
X2246579Y7986979D01*
X2263978Y7986979D01*
X3086100Y7048500D02*
G01*
X3086100Y6054826D01*
X2075230Y5907354D02*
G01*
X2079599Y5902985D01*
X2079599Y5816600D01*
X3189681Y8058150D02*
G01*
X3189681Y7152081D01*
X3086100Y7048500D01*
X3372535Y8058150D02*
G01*
X3372535Y8126450D01*
X3369538Y8129447D01*
X3236036Y8129447D01*
X3189681Y8083092D01*
X3189681Y8058150D01*
X2852394Y8058150D02*
G01*
X3189681Y8058150D01*
X3440836Y8058150D02*
G01*
X3372535Y8058150D01*
X2766136Y5816600D02*
G01*
X2766136Y5911113D01*
X2967405Y6112382D01*
X2967405Y7691805D01*
X3086100Y7810500D01*
X1612036Y6648450D02*
G01*
X1612036Y6787286D01*
X2230272Y6719620D02*
G01*
X2225954Y6723938D01*
X2225954Y7548473D01*
X2439111Y7761630D01*
X2230272Y6648450D02*
G01*
X2230272Y6719620D01*
X2697835Y5816600D02*
G01*
X2766136Y5816600D01*
X3388995Y6455384D02*
G01*
X3388995Y6639001D01*
X3398443Y6648450D01*
X3384372Y5803900D02*
G01*
X3388995Y5808522D01*
X3388995Y6455384D01*
X3466744Y6648450D02*
G01*
X3398443Y6648450D01*
X3316071Y5803900D02*
G01*
X3384372Y5803900D01*
X2848508Y6648450D02*
G01*
X2848508Y6719620D01*
X2908858Y6958888D02*
G01*
X2908858Y6779971D01*
X2848508Y6719620D01*
X1393088Y5455157D02*
G01*
X1342212Y5506034D01*
X1342212Y8746312D01*
X1435100Y8839200D01*
X1461363Y5455157D02*
G01*
X1393088Y5455157D01*
X2079599Y5455157D02*
G01*
X2079599Y5545099D01*
X2697835Y5455157D02*
G01*
X2697835Y5363845D01*
X3227298Y5449747D02*
G01*
X3242386Y5449747D01*
X3247796Y5455157D01*
X3316071Y5455157D02*
G01*
X3247796Y5455157D01*
X1448663Y3810000D02*
G01*
X1516964Y3810000D01*
X2442438Y2594737D02*
G01*
X2065985Y2971190D01*
X2015667Y2971190D01*
X2008276Y2978581D01*
X2008276Y3250387D01*
X1516964Y3741699D01*
X1516964Y3810000D01*
X2442438Y2594737D02*
G01*
X2399969Y2594737D01*
X2468270Y2594737D02*
G01*
X2442438Y2594737D01*
X2159000Y5105400D02*
G01*
X2051735Y5212664D01*
X1870659Y5212664D01*
X1448663Y4790668D01*
X1448663Y3810000D01*
X2399436Y2032000D02*
G01*
X2399436Y2594203D01*
X2399969Y2594737D01*
X1667611Y3048000D02*
G01*
X1724329Y2991281D01*
X2100478Y3685539D02*
G01*
X2080107Y3705910D01*
X2080107Y3810000D01*
X1599336Y3048000D02*
G01*
X1667611Y3048000D01*
X3175000Y4343400D02*
G01*
X3175000Y3961764D01*
X3203600Y3933164D01*
X1599336Y2594737D02*
G01*
X1599336Y3048000D01*
X2862224Y3048000D02*
G01*
X2793923Y3048000D01*
X2230780Y3048000D02*
G01*
X2299055Y3048000D01*
X2299055Y3048000D02*
G01*
X2372156Y3121101D01*
X2789123Y3121101D01*
X2793923Y3116300D01*
X2793923Y3048000D01*
X2711551Y3810000D02*
G01*
X2779852Y3810000D01*
X2932887Y3892016D02*
G01*
X2932887Y4195343D01*
X3032429Y4294886D01*
X3032429Y4962829D01*
X3175000Y5105400D01*
X2930499Y3048000D02*
G01*
X2932887Y3050387D01*
X2932887Y3892016D01*
X2779852Y3810000D02*
G01*
X2779852Y3878300D01*
X2793568Y3892016D01*
X2932887Y3892016D01*
X2862224Y3048000D02*
G01*
X2930499Y3048000D01*
X3342995Y3810000D02*
G01*
X3342995Y3985285D01*
X3415944Y3060700D02*
G01*
X3415944Y2567482D01*
X2467711Y1619250D01*
X3411296Y3810000D02*
G01*
X3415944Y3805351D01*
X3415944Y3060700D01*
X3415944Y3060700D02*
G01*
X3425367Y3060700D01*
X2399436Y1619250D02*
G01*
X2467711Y1619250D01*
X3493668Y3060700D02*
G01*
X3425367Y3060700D01*
X3342995Y3810000D02*
G01*
X3411296Y3810000D01*
D11*
G01*
X1594002Y2032000D03*
G01*
X1453997Y2032000D03*
G01*
X1608734Y6248400D03*
G01*
X1468729Y6248400D03*
G01*
X2226132Y6223000D03*
G01*
X2086127Y6223000D03*
G01*
X2843504Y6223507D03*
G01*
X2703525Y6223507D03*
G01*
X3460902Y6223507D03*
G01*
X3320897Y6223507D03*
G01*
X1596034Y3441700D03*
G01*
X1456029Y3441700D03*
G01*
X2226640Y3441700D03*
G01*
X2086635Y3441700D03*
G01*
X2857245Y3441700D03*
G01*
X2717241Y3441700D03*
G01*
X3487826Y3441700D03*
G01*
X3347847Y3441700D03*
D12*
G01*
X3509340Y2594737D03*
G01*
X3170859Y2594737D03*
G01*
X1430959Y1358900D03*
G01*
X1769440Y1358900D03*
D13*
G01*
X1597277Y1619250D03*
G01*
X1446627Y1619250D03*
G01*
X1675524Y8432800D03*
G01*
X1524875Y8432800D03*
G01*
X2263961Y8432800D03*
G01*
X2113311Y8432800D03*
G01*
X2852388Y8432800D03*
G01*
X2701738Y8432800D03*
G01*
X3440824Y8432800D03*
G01*
X3290175Y8432800D03*
G01*
X1675524Y8058150D03*
G01*
X1524875Y8058150D03*
G01*
X2263959Y8058150D03*
G01*
X2113309Y8058150D03*
G01*
X2852390Y8058150D03*
G01*
X2701740Y8058150D03*
G01*
X3440824Y8058150D03*
G01*
X3290175Y8058150D03*
G01*
X1612024Y6648450D03*
G01*
X1461375Y6648450D03*
G01*
X2230260Y6648450D03*
G01*
X2079611Y6648450D03*
G01*
X2848484Y6648450D03*
G01*
X2697834Y6648450D03*
G01*
X3466720Y6648450D03*
G01*
X3316070Y6648450D03*
G01*
X1612024Y5854700D03*
G01*
X1461375Y5854700D03*
G01*
X2230255Y5816600D03*
G01*
X2079605Y5816600D03*
G01*
X2848489Y5816600D03*
G01*
X2697839Y5816600D03*
G01*
X3466720Y5803900D03*
G01*
X3316070Y5803900D03*
G01*
X1612024Y5455157D03*
G01*
X1461375Y5455157D03*
G01*
X2230260Y5455157D03*
G01*
X2079611Y5455157D03*
G01*
X2848484Y5455157D03*
G01*
X2697834Y5455157D03*
G01*
X3466720Y5455157D03*
G01*
X3316070Y5455157D03*
G01*
X2468258Y2594729D03*
G01*
X2317609Y2594729D03*
G01*
X2399424Y2032000D03*
G01*
X2248775Y2032000D03*
G01*
X1599324Y2594729D03*
G01*
X1448675Y2594729D03*
G01*
X1599324Y3048000D03*
G01*
X1448675Y3048000D03*
G01*
X2230774Y3048000D03*
G01*
X2080124Y3048000D03*
G01*
X2862210Y3048000D03*
G01*
X2711560Y3048000D03*
G01*
X3493659Y3060700D03*
G01*
X3343009Y3060700D03*
G01*
X2399424Y1619250D03*
G01*
X2248775Y1619250D03*
G01*
X1599324Y3810000D03*
G01*
X1448675Y3810000D03*
G01*
X2230768Y3810000D03*
G01*
X2080119Y3810000D03*
G01*
X2862215Y3810000D03*
G01*
X2711565Y3810000D03*
G01*
X3493659Y3810000D03*
G01*
X3343009Y3810000D03*
D14*
G01*
X221513Y7989595D03*
G01*
X921512Y7989595D03*
G01*
X421512Y8469604D03*
G01*
X221513Y6868388D03*
G01*
X921512Y6868388D03*
G01*
X421512Y7348397D03*
G01*
X221513Y5747130D03*
G01*
X921512Y5747130D03*
G01*
X421512Y6227140D03*
G01*
X221513Y4625924D03*
G01*
X921512Y4625924D03*
G01*
X421512Y5105933D03*
G01*
X221513Y3504666D03*
G01*
X921512Y3504666D03*
G01*
X421512Y3984675D03*
G01*
X221513Y2383459D03*
G01*
X921512Y2383459D03*
G01*
X421512Y2863469D03*
G01*
X221513Y1262227D03*
G01*
X921512Y1262227D03*
G01*
X421512Y1742236D03*
G01*
X221513Y140995D03*
G01*
X921512Y140995D03*
G01*
X421512Y621004D03*
D15*
G01*
X3276600Y685800D03*
G01*
X3022600Y685800D03*
G01*
X3276600Y939800D03*
G01*
X3022600Y939800D03*
G01*
X3276600Y1193800D03*
G01*
X3022600Y1193800D03*
G01*
X3276600Y1447800D03*
G01*
X3022600Y1447800D03*
G01*
X3276600Y1701800D03*
G01*
X3022600Y1701800D03*
D16*
G01*
X165100Y8839200D03*
G01*
X419100Y8839200D03*
G01*
X673100Y8839200D03*
G01*
X927100Y8839200D03*
G01*
X1181100Y8839200D03*
G01*
X1435100Y8839200D03*
G01*
X1689100Y8839200D03*
G01*
X1943100Y8839200D03*
G01*
X2197100Y8839200D03*
G01*
X2451100Y8839200D03*
G01*
X2705100Y8839200D03*
G01*
X2959100Y8839200D03*
G01*
X3213100Y8839200D03*
G01*
X3467100Y8839200D03*
G01*
X3467100Y10363200D03*
G01*
X3213100Y10363200D03*
G01*
X2959100Y10363200D03*
G01*
X2705100Y10363200D03*
G01*
X2451100Y10363200D03*
G01*
X2197100Y10363200D03*
G01*
X1943100Y10363200D03*
G01*
X1689100Y10363200D03*
G01*
X1435100Y10363200D03*
G01*
X1181100Y10363200D03*
G01*
X927100Y10363200D03*
G01*
X673100Y10363200D03*
G01*
X419100Y10363200D03*
G01*
X165100Y10363200D03*
D17*
G01*
X2165350Y438175D03*
G01*
X2165350Y692175D03*
G01*
X2165350Y946175D03*
D18*
G01*
X1816100Y7048500D03*
D19*
G01*
X2070100Y7048500D03*
G01*
X2324100Y7048500D03*
G01*
X2578100Y7048500D03*
G01*
X2832100Y7048500D03*
G01*
X3086100Y7048500D03*
G01*
X3340100Y7048500D03*
G01*
X3340100Y7810500D03*
G01*
X3086100Y7810500D03*
G01*
X2832100Y7810500D03*
G01*
X2578100Y7810500D03*
G01*
X2324100Y7810500D03*
G01*
X2070100Y7810500D03*
G01*
X1816100Y7810500D03*
D18*
G01*
X1905000Y4343400D03*
D19*
G01*
X2159000Y4343400D03*
G01*
X2413000Y4343400D03*
G01*
X2667000Y4343400D03*
G01*
X2921000Y4343400D03*
G01*
X3175000Y4343400D03*
G01*
X3429000Y4343400D03*
G01*
X3429000Y5105400D03*
G01*
X3175000Y5105400D03*
G01*
X2921000Y5105400D03*
G01*
X2667000Y5105400D03*
G01*
X2413000Y5105400D03*
G01*
X2159000Y5105400D03*
G01*
X1905000Y5105400D03*
D20*
G01*
X1589760Y6103721D03*
G01*
X2866390Y6116218D03*
G01*
X3473246Y6122822D03*
G01*
X3226028Y6661327D03*
G01*
X2094484Y6421628D03*
G01*
X2703525Y6129934D03*
G01*
X1529664Y6558737D03*
G01*
X2104212Y3317519D03*
G01*
X1496110Y2764561D03*
G01*
X2991586Y4085310D03*
G01*
X1446606Y1917700D03*
G01*
X1865655Y1338148D03*
G01*
X2030501Y6554851D03*
G01*
X2848508Y5905703D03*
G01*
X3466744Y5894146D03*
G01*
X1068451Y6810375D03*
G01*
X2258822Y4417161D03*
G01*
X1953513Y3514979D03*
G01*
X2862224Y3566261D03*
G01*
X3624884Y5049901D03*
G01*
X1524863Y8290331D03*
G01*
X2026437Y8432800D03*
G01*
X2701721Y8522487D03*
G01*
X3290163Y8593988D03*
G01*
X2075230Y5907354D03*
G01*
X3086100Y6054826D03*
G01*
X1612036Y6787286D03*
G01*
X2439111Y7761630D03*
G01*
X3388995Y6455384D03*
G01*
X2908858Y6958888D03*
G01*
X2079599Y5545099D03*
G01*
X2697835Y5363845D03*
G01*
X3227298Y5449747D03*
G01*
X1724329Y2991281D03*
G01*
X2100478Y3685539D03*
G01*
X3203600Y3933164D03*
G01*
X3342995Y3985285D03*
M02*
