G04 Layer: TopSilkscreenLayer*
G04 EasyEDA v6.5.22, 2023-04-13 12:14:21*
G04 8c6dcb5ec9fe4ba2bbc49dbc1e847b49,f016fa541b524367aba1ea0f7d3472e8,10*
G04 Gerber Generator version 0.2*
G04 Scale: 100 percent, Rotated: No, Reflected: No *
G04 Dimensions in millimeters *
G04 leading zeros omitted , absolute positions ,4 integer and 5 decimal *
%FSLAX45Y45*%
%MOMM*%

%ADD10C,0.2032*%
%ADD11C,0.1524*%
%ADD12C,0.1270*%
%ADD13C,0.1000*%
%ADD14C,0.2540*%
%ADD15C,0.1520*%
%ADD16C,0.0508*%
%ADD17C,0.2286*%
%ADD18C,0.0115*%

%LPD*%
D10*
X1474723Y237744D02*
G01*
X1456436Y219455D01*
X1447037Y200913D01*
X1447037Y173228D01*
X1456436Y154686D01*
X1474723Y136144D01*
X1502410Y127000D01*
X1520952Y127000D01*
X1548637Y136144D01*
X1567179Y154686D01*
X1576323Y173228D01*
X1576323Y200913D01*
X1567179Y219455D01*
X1548637Y237744D01*
X1474723Y409702D02*
G01*
X1456436Y391160D01*
X1447037Y372618D01*
X1447037Y344931D01*
X1456436Y326389D01*
X1474723Y308102D01*
X1502410Y298704D01*
X1520952Y298704D01*
X1548637Y308102D01*
X1567179Y326389D01*
X1576323Y344931D01*
X1576323Y372618D01*
X1567179Y391160D01*
X1548637Y409702D01*
X1428750Y479805D02*
G01*
X1419352Y479805D01*
X1400810Y488950D01*
X1391665Y498347D01*
X1382521Y516889D01*
X1382521Y553720D01*
X1391665Y572262D01*
X1400810Y581405D01*
X1419352Y590550D01*
X1437894Y590550D01*
X1456436Y581405D01*
X1484121Y562863D01*
X1576323Y470662D01*
X1576323Y599947D01*
X1474723Y771652D02*
G01*
X1456436Y753110D01*
X1447037Y734821D01*
X1447037Y707136D01*
X1456436Y688594D01*
X1474723Y670052D01*
X1502410Y660907D01*
X1520952Y660907D01*
X1548637Y670052D01*
X1567179Y688594D01*
X1576323Y707136D01*
X1576323Y734821D01*
X1567179Y753110D01*
X1548637Y771652D01*
X1447037Y832612D02*
G01*
X1576323Y887984D01*
X1447037Y943610D02*
G01*
X1576323Y887984D01*
D11*
X1576578Y2223007D02*
G01*
X1571244Y2233421D01*
X1560829Y2243836D01*
X1550670Y2248915D01*
X1529842Y2248915D01*
X1519428Y2243836D01*
X1509013Y2233421D01*
X1503679Y2223007D01*
X1498600Y2207260D01*
X1498600Y2181352D01*
X1503679Y2165857D01*
X1509013Y2155444D01*
X1519428Y2145029D01*
X1529842Y2139950D01*
X1550670Y2139950D01*
X1560829Y2145029D01*
X1571244Y2155444D01*
X1576578Y2165857D01*
X1610868Y2228087D02*
G01*
X1621281Y2233421D01*
X1636776Y2248915D01*
X1636776Y2139950D01*
X1591317Y6439407D02*
G01*
X1585983Y6449821D01*
X1575569Y6460236D01*
X1565409Y6465315D01*
X1544581Y6465315D01*
X1534167Y6460236D01*
X1523753Y6449821D01*
X1518419Y6439407D01*
X1513339Y6423660D01*
X1513339Y6397752D01*
X1518419Y6382257D01*
X1523753Y6371844D01*
X1534167Y6361429D01*
X1544581Y6356350D01*
X1565409Y6356350D01*
X1575569Y6361429D01*
X1585983Y6371844D01*
X1591317Y6382257D01*
X1630687Y6439407D02*
G01*
X1630687Y6444487D01*
X1636021Y6454902D01*
X1641101Y6460236D01*
X1651515Y6465315D01*
X1672343Y6465315D01*
X1682757Y6460236D01*
X1687837Y6454902D01*
X1693171Y6444487D01*
X1693171Y6434073D01*
X1687837Y6423660D01*
X1677423Y6408165D01*
X1625607Y6356350D01*
X1698251Y6356350D01*
X2208705Y6414007D02*
G01*
X2203371Y6424421D01*
X2192957Y6434836D01*
X2182797Y6439915D01*
X2161969Y6439915D01*
X2151555Y6434836D01*
X2141141Y6424421D01*
X2135807Y6414007D01*
X2130727Y6398260D01*
X2130727Y6372352D01*
X2135807Y6356857D01*
X2141141Y6346444D01*
X2151555Y6336029D01*
X2161969Y6330950D01*
X2182797Y6330950D01*
X2192957Y6336029D01*
X2203371Y6346444D01*
X2208705Y6356857D01*
X2253409Y6439915D02*
G01*
X2310559Y6439915D01*
X2279317Y6398260D01*
X2294811Y6398260D01*
X2305225Y6393179D01*
X2310559Y6388100D01*
X2315639Y6372352D01*
X2315639Y6361937D01*
X2310559Y6346444D01*
X2300145Y6336029D01*
X2284397Y6330950D01*
X2268903Y6330950D01*
X2253409Y6336029D01*
X2248075Y6341110D01*
X2242995Y6351523D01*
X2826092Y6414515D02*
G01*
X2820758Y6424929D01*
X2810344Y6435344D01*
X2800184Y6440423D01*
X2779356Y6440423D01*
X2768942Y6435344D01*
X2758528Y6424929D01*
X2753194Y6414515D01*
X2748114Y6398768D01*
X2748114Y6372860D01*
X2753194Y6357365D01*
X2758528Y6346952D01*
X2768942Y6336537D01*
X2779356Y6331457D01*
X2800184Y6331457D01*
X2810344Y6336537D01*
X2820758Y6346952D01*
X2826092Y6357365D01*
X2912198Y6440423D02*
G01*
X2860382Y6367779D01*
X2938360Y6367779D01*
X2912198Y6440423D02*
G01*
X2912198Y6331457D01*
X3443477Y6414515D02*
G01*
X3438143Y6424929D01*
X3427729Y6435344D01*
X3417570Y6440423D01*
X3396741Y6440423D01*
X3386327Y6435344D01*
X3375913Y6424929D01*
X3370579Y6414515D01*
X3365500Y6398768D01*
X3365500Y6372860D01*
X3370579Y6357365D01*
X3375913Y6346952D01*
X3386327Y6336537D01*
X3396741Y6331457D01*
X3417570Y6331457D01*
X3427729Y6336537D01*
X3438143Y6346952D01*
X3443477Y6357365D01*
X3539997Y6440423D02*
G01*
X3488181Y6440423D01*
X3482847Y6393687D01*
X3488181Y6398768D01*
X3503675Y6404102D01*
X3519170Y6404102D01*
X3534918Y6398768D01*
X3545331Y6388607D01*
X3550411Y6372860D01*
X3550411Y6362445D01*
X3545331Y6346952D01*
X3534918Y6336537D01*
X3519170Y6331457D01*
X3503675Y6331457D01*
X3488181Y6336537D01*
X3482847Y6341618D01*
X3477768Y6352031D01*
X1578617Y3632707D02*
G01*
X1573283Y3643121D01*
X1562869Y3653536D01*
X1552709Y3658615D01*
X1531881Y3658615D01*
X1521467Y3653536D01*
X1511053Y3643121D01*
X1505719Y3632707D01*
X1500639Y3616960D01*
X1500639Y3591052D01*
X1505719Y3575557D01*
X1511053Y3565144D01*
X1521467Y3554729D01*
X1531881Y3549650D01*
X1552709Y3549650D01*
X1562869Y3554729D01*
X1573283Y3565144D01*
X1578617Y3575557D01*
X1675137Y3643121D02*
G01*
X1670057Y3653536D01*
X1654309Y3658615D01*
X1644149Y3658615D01*
X1628401Y3653536D01*
X1617987Y3637787D01*
X1612907Y3611879D01*
X1612907Y3585971D01*
X1617987Y3565144D01*
X1628401Y3554729D01*
X1644149Y3549650D01*
X1649229Y3549650D01*
X1664723Y3554729D01*
X1675137Y3565144D01*
X1680471Y3580637D01*
X1680471Y3585971D01*
X1675137Y3601465D01*
X1664723Y3611879D01*
X1649229Y3616960D01*
X1644149Y3616960D01*
X1628401Y3611879D01*
X1617987Y3601465D01*
X1612907Y3585971D01*
X2209213Y3632707D02*
G01*
X2203879Y3643121D01*
X2193465Y3653536D01*
X2183305Y3658615D01*
X2162477Y3658615D01*
X2152063Y3653536D01*
X2141649Y3643121D01*
X2136315Y3632707D01*
X2131235Y3616960D01*
X2131235Y3591052D01*
X2136315Y3575557D01*
X2141649Y3565144D01*
X2152063Y3554729D01*
X2162477Y3549650D01*
X2183305Y3549650D01*
X2193465Y3554729D01*
X2203879Y3565144D01*
X2209213Y3575557D01*
X2316147Y3658615D02*
G01*
X2264331Y3549650D01*
X2243503Y3658615D02*
G01*
X2316147Y3658615D01*
X2839813Y3632707D02*
G01*
X2834479Y3643121D01*
X2824065Y3653536D01*
X2813905Y3658615D01*
X2793077Y3658615D01*
X2782663Y3653536D01*
X2772249Y3643121D01*
X2766915Y3632707D01*
X2761835Y3616960D01*
X2761835Y3591052D01*
X2766915Y3575557D01*
X2772249Y3565144D01*
X2782663Y3554729D01*
X2793077Y3549650D01*
X2813905Y3549650D01*
X2824065Y3554729D01*
X2834479Y3565144D01*
X2839813Y3575557D01*
X2900011Y3658615D02*
G01*
X2884517Y3653536D01*
X2879183Y3643121D01*
X2879183Y3632707D01*
X2884517Y3622294D01*
X2894931Y3616960D01*
X2915505Y3611879D01*
X2931253Y3606800D01*
X2941667Y3596386D01*
X2946747Y3585971D01*
X2946747Y3570223D01*
X2941667Y3559810D01*
X2936333Y3554729D01*
X2920839Y3549650D01*
X2900011Y3549650D01*
X2884517Y3554729D01*
X2879183Y3559810D01*
X2874103Y3570223D01*
X2874103Y3585971D01*
X2879183Y3596386D01*
X2889597Y3606800D01*
X2905345Y3611879D01*
X2925919Y3616960D01*
X2936333Y3622294D01*
X2941667Y3632707D01*
X2941667Y3643121D01*
X2936333Y3653536D01*
X2920839Y3658615D01*
X2900011Y3658615D01*
X3470414Y3632707D02*
G01*
X3465080Y3643121D01*
X3454666Y3653536D01*
X3444506Y3658615D01*
X3423678Y3658615D01*
X3413264Y3653536D01*
X3402850Y3643121D01*
X3397516Y3632707D01*
X3392436Y3616960D01*
X3392436Y3591052D01*
X3397516Y3575557D01*
X3402850Y3565144D01*
X3413264Y3554729D01*
X3423678Y3549650D01*
X3444506Y3549650D01*
X3454666Y3554729D01*
X3465080Y3565144D01*
X3470414Y3575557D01*
X3572268Y3622294D02*
G01*
X3566934Y3606800D01*
X3556520Y3596386D01*
X3541026Y3591052D01*
X3535946Y3591052D01*
X3520198Y3596386D01*
X3509784Y3606800D01*
X3504704Y3622294D01*
X3504704Y3627373D01*
X3509784Y3643121D01*
X3520198Y3653536D01*
X3535946Y3658615D01*
X3541026Y3658615D01*
X3556520Y3653536D01*
X3566934Y3643121D01*
X3572268Y3622294D01*
X3572268Y3596386D01*
X3566934Y3570223D01*
X3556520Y3554729D01*
X3541026Y3549650D01*
X3530612Y3549650D01*
X3515118Y3554729D01*
X3509784Y3565144D01*
X3340100Y2837045D02*
G01*
X3340100Y2728079D01*
X3340100Y2837045D02*
G01*
X3376422Y2837045D01*
X3392170Y2831965D01*
X3402329Y2821551D01*
X3407663Y2811137D01*
X3412743Y2795389D01*
X3412743Y2769481D01*
X3407663Y2753987D01*
X3402329Y2743573D01*
X3392170Y2733159D01*
X3376422Y2728079D01*
X3340100Y2728079D01*
X3447034Y2816217D02*
G01*
X3457447Y2821551D01*
X3473195Y2837045D01*
X3473195Y2728079D01*
X1600200Y1116584D02*
G01*
X1600200Y1225550D01*
X1600200Y1116584D02*
G01*
X1563878Y1116584D01*
X1548129Y1121663D01*
X1537970Y1132078D01*
X1532636Y1142492D01*
X1527555Y1158239D01*
X1527555Y1184147D01*
X1532636Y1199642D01*
X1537970Y1210055D01*
X1548129Y1220470D01*
X1563878Y1225550D01*
X1600200Y1225550D01*
X1487931Y1142492D02*
G01*
X1487931Y1137412D01*
X1482852Y1126997D01*
X1477518Y1121663D01*
X1467104Y1116584D01*
X1446529Y1116584D01*
X1436115Y1121663D01*
X1430781Y1126997D01*
X1425702Y1137412D01*
X1425702Y1147826D01*
X1430781Y1158239D01*
X1441195Y1173734D01*
X1493265Y1225550D01*
X1420368Y1225550D01*
X451370Y8700515D02*
G01*
X451370Y8617458D01*
X446036Y8601710D01*
X440956Y8596629D01*
X430542Y8591550D01*
X420128Y8591550D01*
X409714Y8596629D01*
X404380Y8601710D01*
X399300Y8617458D01*
X399300Y8627871D01*
X485660Y8679687D02*
G01*
X495820Y8685021D01*
X511568Y8700515D01*
X511568Y8591550D01*
X451370Y7579288D02*
G01*
X451370Y7496230D01*
X446036Y7480482D01*
X440956Y7475402D01*
X430542Y7470322D01*
X420128Y7470322D01*
X409714Y7475402D01*
X404380Y7480482D01*
X399300Y7496230D01*
X399300Y7506644D01*
X490740Y7553380D02*
G01*
X490740Y7558460D01*
X495820Y7568874D01*
X501154Y7574208D01*
X511568Y7579288D01*
X532396Y7579288D01*
X542810Y7574208D01*
X547890Y7568874D01*
X552970Y7558460D01*
X552970Y7548046D01*
X547890Y7537632D01*
X537476Y7522138D01*
X485660Y7470322D01*
X558304Y7470322D01*
X451370Y6458064D02*
G01*
X451370Y6375006D01*
X446036Y6359258D01*
X440956Y6354178D01*
X430542Y6349098D01*
X420128Y6349098D01*
X409714Y6354178D01*
X404380Y6359258D01*
X399300Y6375006D01*
X399300Y6385420D01*
X495820Y6458064D02*
G01*
X552970Y6458064D01*
X521982Y6416408D01*
X537476Y6416408D01*
X547890Y6411328D01*
X552970Y6406248D01*
X558304Y6390500D01*
X558304Y6380086D01*
X552970Y6364592D01*
X542810Y6354178D01*
X527062Y6349098D01*
X511568Y6349098D01*
X495820Y6354178D01*
X490740Y6359258D01*
X485660Y6369672D01*
X451370Y5336834D02*
G01*
X451370Y5253776D01*
X446036Y5238028D01*
X440956Y5232948D01*
X430542Y5227868D01*
X420128Y5227868D01*
X409714Y5232948D01*
X404380Y5238028D01*
X399300Y5253776D01*
X399300Y5264190D01*
X537476Y5336834D02*
G01*
X485660Y5264190D01*
X563384Y5264190D01*
X537476Y5336834D02*
G01*
X537476Y5227868D01*
X451370Y4215607D02*
G01*
X451370Y4132549D01*
X446036Y4116801D01*
X440956Y4111721D01*
X430542Y4106641D01*
X420128Y4106641D01*
X409714Y4111721D01*
X404380Y4116801D01*
X399300Y4132549D01*
X399300Y4142963D01*
X547890Y4215607D02*
G01*
X495820Y4215607D01*
X490740Y4168871D01*
X495820Y4173951D01*
X511568Y4179285D01*
X527062Y4179285D01*
X542810Y4173951D01*
X552970Y4163791D01*
X558304Y4148043D01*
X558304Y4137629D01*
X552970Y4122135D01*
X542810Y4111721D01*
X527062Y4106641D01*
X511568Y4106641D01*
X495820Y4111721D01*
X490740Y4116801D01*
X485660Y4127215D01*
X451370Y3094375D02*
G01*
X451370Y3011317D01*
X446036Y2995569D01*
X440956Y2990489D01*
X430542Y2985409D01*
X420128Y2985409D01*
X409714Y2990489D01*
X404380Y2995569D01*
X399300Y3011317D01*
X399300Y3021731D01*
X547890Y3078881D02*
G01*
X542810Y3089295D01*
X527062Y3094375D01*
X516648Y3094375D01*
X501154Y3089295D01*
X490740Y3073547D01*
X485660Y3047639D01*
X485660Y3021731D01*
X490740Y3000903D01*
X501154Y2990489D01*
X516648Y2985409D01*
X521982Y2985409D01*
X537476Y2990489D01*
X547890Y3000903D01*
X552970Y3016397D01*
X552970Y3021731D01*
X547890Y3037225D01*
X537476Y3047639D01*
X521982Y3052719D01*
X516648Y3052719D01*
X501154Y3047639D01*
X490740Y3037225D01*
X485660Y3021731D01*
X451370Y1973148D02*
G01*
X451370Y1890090D01*
X446036Y1874342D01*
X440956Y1869262D01*
X430542Y1864182D01*
X420128Y1864182D01*
X409714Y1869262D01*
X404380Y1874342D01*
X399300Y1890090D01*
X399300Y1900504D01*
X558304Y1973148D02*
G01*
X506234Y1864182D01*
X485660Y1973148D02*
G01*
X558304Y1973148D01*
X451370Y851915D02*
G01*
X451370Y768857D01*
X446036Y753110D01*
X440956Y748029D01*
X430542Y742950D01*
X420128Y742950D01*
X409714Y748029D01*
X404380Y753110D01*
X399300Y768857D01*
X399300Y779271D01*
X511568Y851915D02*
G01*
X495820Y846836D01*
X490740Y836421D01*
X490740Y826007D01*
X495820Y815594D01*
X506234Y810260D01*
X527062Y805179D01*
X542810Y800100D01*
X552970Y789686D01*
X558304Y779271D01*
X558304Y763523D01*
X552970Y753110D01*
X547890Y748029D01*
X532396Y742950D01*
X511568Y742950D01*
X495820Y748029D01*
X490740Y753110D01*
X485660Y763523D01*
X485660Y779271D01*
X490740Y789686D01*
X501154Y800100D01*
X516648Y805179D01*
X537476Y810260D01*
X547890Y815594D01*
X552970Y826007D01*
X552970Y836421D01*
X547890Y846836D01*
X532396Y851915D01*
X511568Y851915D01*
X1521952Y1836165D02*
G01*
X1521952Y1727200D01*
X1521952Y1836165D02*
G01*
X1568688Y1836165D01*
X1584182Y1831086D01*
X1589516Y1825752D01*
X1594596Y1815337D01*
X1594596Y1804923D01*
X1589516Y1794510D01*
X1584182Y1789429D01*
X1568688Y1784350D01*
X1521952Y1784350D01*
X1558274Y1784350D02*
G01*
X1594596Y1727200D01*
X1628886Y1815337D02*
G01*
X1639300Y1820671D01*
X1655048Y1836165D01*
X1655048Y1727200D01*
X1600200Y8649715D02*
G01*
X1600200Y8540750D01*
X1600200Y8649715D02*
G01*
X1646936Y8649715D01*
X1662429Y8644636D01*
X1667763Y8639302D01*
X1672844Y8628887D01*
X1672844Y8618474D01*
X1667763Y8608060D01*
X1662429Y8602979D01*
X1646936Y8597900D01*
X1600200Y8597900D01*
X1636521Y8597900D02*
G01*
X1672844Y8540750D01*
X1712468Y8623808D02*
G01*
X1712468Y8628887D01*
X1717547Y8639302D01*
X1722881Y8644636D01*
X1733295Y8649715D01*
X1753870Y8649715D01*
X1764284Y8644636D01*
X1769618Y8639302D01*
X1774697Y8628887D01*
X1774697Y8618474D01*
X1769618Y8608060D01*
X1759204Y8592565D01*
X1707134Y8540750D01*
X1780031Y8540750D01*
X2188636Y8649715D02*
G01*
X2188636Y8540750D01*
X2188636Y8649715D02*
G01*
X2235372Y8649715D01*
X2250866Y8644636D01*
X2256200Y8639302D01*
X2261280Y8628887D01*
X2261280Y8618474D01*
X2256200Y8608060D01*
X2250866Y8602979D01*
X2235372Y8597900D01*
X2188636Y8597900D01*
X2224958Y8597900D02*
G01*
X2261280Y8540750D01*
X2305984Y8649715D02*
G01*
X2363134Y8649715D01*
X2332146Y8608060D01*
X2347640Y8608060D01*
X2358054Y8602979D01*
X2363134Y8597900D01*
X2368468Y8582152D01*
X2368468Y8571737D01*
X2363134Y8556244D01*
X2352720Y8545829D01*
X2337226Y8540750D01*
X2321732Y8540750D01*
X2305984Y8545829D01*
X2300904Y8550910D01*
X2295570Y8561324D01*
X2777063Y8649715D02*
G01*
X2777063Y8540750D01*
X2777063Y8649715D02*
G01*
X2823799Y8649715D01*
X2839293Y8644636D01*
X2844627Y8639302D01*
X2849707Y8628887D01*
X2849707Y8618474D01*
X2844627Y8608060D01*
X2839293Y8602979D01*
X2823799Y8597900D01*
X2777063Y8597900D01*
X2813385Y8597900D02*
G01*
X2849707Y8540750D01*
X2936067Y8649715D02*
G01*
X2883997Y8577071D01*
X2961975Y8577071D01*
X2936067Y8649715D02*
G01*
X2936067Y8540750D01*
X3365500Y8649715D02*
G01*
X3365500Y8540750D01*
X3365500Y8649715D02*
G01*
X3412236Y8649715D01*
X3427729Y8644636D01*
X3433063Y8639302D01*
X3438143Y8628887D01*
X3438143Y8618474D01*
X3433063Y8608060D01*
X3427729Y8602979D01*
X3412236Y8597900D01*
X3365500Y8597900D01*
X3401822Y8597900D02*
G01*
X3438143Y8540750D01*
X3534918Y8649715D02*
G01*
X3482847Y8649715D01*
X3477768Y8602979D01*
X3482847Y8608060D01*
X3498595Y8613394D01*
X3514090Y8613394D01*
X3529584Y8608060D01*
X3539997Y8597900D01*
X3545331Y8582152D01*
X3545331Y8571737D01*
X3539997Y8556244D01*
X3529584Y8545829D01*
X3514090Y8540750D01*
X3498595Y8540750D01*
X3482847Y8545829D01*
X3477768Y8550910D01*
X3472434Y8561324D01*
X1600200Y8275065D02*
G01*
X1600200Y8166100D01*
X1600200Y8275065D02*
G01*
X1646936Y8275065D01*
X1662429Y8269986D01*
X1667763Y8264652D01*
X1672844Y8254237D01*
X1672844Y8243823D01*
X1667763Y8233410D01*
X1662429Y8228329D01*
X1646936Y8223250D01*
X1600200Y8223250D01*
X1636521Y8223250D02*
G01*
X1672844Y8166100D01*
X1769618Y8259571D02*
G01*
X1764284Y8269986D01*
X1748789Y8275065D01*
X1738376Y8275065D01*
X1722881Y8269986D01*
X1712468Y8254237D01*
X1707134Y8228329D01*
X1707134Y8202421D01*
X1712468Y8181594D01*
X1722881Y8171179D01*
X1738376Y8166100D01*
X1743710Y8166100D01*
X1759204Y8171179D01*
X1769618Y8181594D01*
X1774697Y8197087D01*
X1774697Y8202421D01*
X1769618Y8217915D01*
X1759204Y8228329D01*
X1743710Y8233410D01*
X1738376Y8233410D01*
X1722881Y8228329D01*
X1712468Y8217915D01*
X1707134Y8202421D01*
X2188634Y8275065D02*
G01*
X2188634Y8166100D01*
X2188634Y8275065D02*
G01*
X2235370Y8275065D01*
X2250864Y8269986D01*
X2256198Y8264652D01*
X2261278Y8254237D01*
X2261278Y8243823D01*
X2256198Y8233410D01*
X2250864Y8228329D01*
X2235370Y8223250D01*
X2188634Y8223250D01*
X2224956Y8223250D02*
G01*
X2261278Y8166100D01*
X2368466Y8275065D02*
G01*
X2316396Y8166100D01*
X2295568Y8275065D02*
G01*
X2368466Y8275065D01*
X2777065Y8275065D02*
G01*
X2777065Y8166100D01*
X2777065Y8275065D02*
G01*
X2823801Y8275065D01*
X2839295Y8269986D01*
X2844629Y8264652D01*
X2849709Y8254237D01*
X2849709Y8243823D01*
X2844629Y8233410D01*
X2839295Y8228329D01*
X2823801Y8223250D01*
X2777065Y8223250D01*
X2813387Y8223250D02*
G01*
X2849709Y8166100D01*
X2910161Y8275065D02*
G01*
X2894413Y8269986D01*
X2889333Y8259571D01*
X2889333Y8249158D01*
X2894413Y8238744D01*
X2904827Y8233410D01*
X2925655Y8228329D01*
X2941149Y8223250D01*
X2951563Y8212836D01*
X2956897Y8202421D01*
X2956897Y8186673D01*
X2951563Y8176260D01*
X2946483Y8171179D01*
X2930735Y8166100D01*
X2910161Y8166100D01*
X2894413Y8171179D01*
X2889333Y8176260D01*
X2883999Y8186673D01*
X2883999Y8202421D01*
X2889333Y8212836D01*
X2899747Y8223250D01*
X2915241Y8228329D01*
X2936069Y8233410D01*
X2946483Y8238744D01*
X2951563Y8249158D01*
X2951563Y8259571D01*
X2946483Y8269986D01*
X2930735Y8275065D01*
X2910161Y8275065D01*
X3365500Y8275065D02*
G01*
X3365500Y8166100D01*
X3365500Y8275065D02*
G01*
X3412236Y8275065D01*
X3427729Y8269986D01*
X3433063Y8264652D01*
X3438143Y8254237D01*
X3438143Y8243823D01*
X3433063Y8233410D01*
X3427729Y8228329D01*
X3412236Y8223250D01*
X3365500Y8223250D01*
X3401822Y8223250D02*
G01*
X3438143Y8166100D01*
X3539997Y8238744D02*
G01*
X3534918Y8223250D01*
X3524504Y8212836D01*
X3509009Y8207502D01*
X3503675Y8207502D01*
X3488181Y8212836D01*
X3477768Y8223250D01*
X3472434Y8238744D01*
X3472434Y8243823D01*
X3477768Y8259571D01*
X3488181Y8269986D01*
X3503675Y8275065D01*
X3509009Y8275065D01*
X3524504Y8269986D01*
X3534918Y8259571D01*
X3539997Y8238744D01*
X3539997Y8212836D01*
X3534918Y8186673D01*
X3524504Y8171179D01*
X3509009Y8166100D01*
X3498595Y8166100D01*
X3482847Y8171179D01*
X3477768Y8181594D01*
X1536700Y6865365D02*
G01*
X1536700Y6756400D01*
X1536700Y6865365D02*
G01*
X1583436Y6865365D01*
X1598929Y6860286D01*
X1604263Y6854952D01*
X1609344Y6844537D01*
X1609344Y6834123D01*
X1604263Y6823710D01*
X1598929Y6818629D01*
X1583436Y6813550D01*
X1536700Y6813550D01*
X1573021Y6813550D02*
G01*
X1609344Y6756400D01*
X1643634Y6844537D02*
G01*
X1654047Y6849871D01*
X1669795Y6865365D01*
X1669795Y6756400D01*
X1735073Y6865365D02*
G01*
X1719579Y6860286D01*
X1709165Y6844537D01*
X1704086Y6818629D01*
X1704086Y6803136D01*
X1709165Y6776973D01*
X1719579Y6761479D01*
X1735073Y6756400D01*
X1745487Y6756400D01*
X1761236Y6761479D01*
X1771650Y6776973D01*
X1776729Y6803136D01*
X1776729Y6818629D01*
X1771650Y6844537D01*
X1761236Y6860286D01*
X1745487Y6865365D01*
X1735073Y6865365D01*
X2154936Y6865365D02*
G01*
X2154936Y6756400D01*
X2154936Y6865365D02*
G01*
X2201672Y6865365D01*
X2217165Y6860286D01*
X2222500Y6854952D01*
X2227579Y6844537D01*
X2227579Y6834123D01*
X2222500Y6823710D01*
X2217165Y6818629D01*
X2201672Y6813550D01*
X2154936Y6813550D01*
X2191258Y6813550D02*
G01*
X2227579Y6756400D01*
X2261870Y6844537D02*
G01*
X2272284Y6849871D01*
X2288031Y6865365D01*
X2288031Y6756400D01*
X2322322Y6844537D02*
G01*
X2332736Y6849871D01*
X2348229Y6865365D01*
X2348229Y6756400D01*
X2773159Y6865365D02*
G01*
X2773159Y6756400D01*
X2773159Y6865365D02*
G01*
X2819895Y6865365D01*
X2835389Y6860286D01*
X2840723Y6854952D01*
X2845803Y6844537D01*
X2845803Y6834123D01*
X2840723Y6823710D01*
X2835389Y6818629D01*
X2819895Y6813550D01*
X2773159Y6813550D01*
X2809481Y6813550D02*
G01*
X2845803Y6756400D01*
X2880093Y6844537D02*
G01*
X2890507Y6849871D01*
X2906255Y6865365D01*
X2906255Y6756400D01*
X2945625Y6839458D02*
G01*
X2945625Y6844537D01*
X2950959Y6854952D01*
X2956039Y6860286D01*
X2966453Y6865365D01*
X2987281Y6865365D01*
X2997695Y6860286D01*
X3002775Y6854952D01*
X3008109Y6844537D01*
X3008109Y6834123D01*
X3002775Y6823710D01*
X2992361Y6808215D01*
X2940545Y6756400D01*
X3013189Y6756400D01*
X3391395Y6865365D02*
G01*
X3391395Y6756400D01*
X3391395Y6865365D02*
G01*
X3438131Y6865365D01*
X3453625Y6860286D01*
X3458959Y6854952D01*
X3464039Y6844537D01*
X3464039Y6834123D01*
X3458959Y6823710D01*
X3453625Y6818629D01*
X3438131Y6813550D01*
X3391395Y6813550D01*
X3427717Y6813550D02*
G01*
X3464039Y6756400D01*
X3498329Y6844537D02*
G01*
X3508743Y6849871D01*
X3524491Y6865365D01*
X3524491Y6756400D01*
X3569195Y6865365D02*
G01*
X3626345Y6865365D01*
X3595103Y6823710D01*
X3610597Y6823710D01*
X3621011Y6818629D01*
X3626345Y6813550D01*
X3631425Y6797802D01*
X3631425Y6787387D01*
X3626345Y6771894D01*
X3615931Y6761479D01*
X3600183Y6756400D01*
X3584689Y6756400D01*
X3569195Y6761479D01*
X3563861Y6766560D01*
X3558781Y6776973D01*
X1536700Y6071615D02*
G01*
X1536700Y5962650D01*
X1536700Y6071615D02*
G01*
X1583436Y6071615D01*
X1598929Y6066536D01*
X1604263Y6061202D01*
X1609344Y6050787D01*
X1609344Y6040373D01*
X1604263Y6029960D01*
X1598929Y6024879D01*
X1583436Y6019800D01*
X1536700Y6019800D01*
X1573021Y6019800D02*
G01*
X1609344Y5962650D01*
X1643634Y6050787D02*
G01*
X1654047Y6056121D01*
X1669795Y6071615D01*
X1669795Y5962650D01*
X1755902Y6071615D02*
G01*
X1704086Y5998971D01*
X1781810Y5998971D01*
X1755902Y6071615D02*
G01*
X1755902Y5962650D01*
X2154930Y6033515D02*
G01*
X2154930Y5924550D01*
X2154930Y6033515D02*
G01*
X2201666Y6033515D01*
X2217160Y6028436D01*
X2222494Y6023102D01*
X2227574Y6012687D01*
X2227574Y6002273D01*
X2222494Y5991860D01*
X2217160Y5986779D01*
X2201666Y5981700D01*
X2154930Y5981700D01*
X2191252Y5981700D02*
G01*
X2227574Y5924550D01*
X2261864Y6012687D02*
G01*
X2272278Y6018021D01*
X2288026Y6033515D01*
X2288026Y5924550D01*
X2384546Y6033515D02*
G01*
X2332730Y6033515D01*
X2327396Y5986779D01*
X2332730Y5991860D01*
X2348224Y5997194D01*
X2363718Y5997194D01*
X2379466Y5991860D01*
X2389880Y5981700D01*
X2394960Y5965952D01*
X2394960Y5955537D01*
X2389880Y5940044D01*
X2379466Y5929629D01*
X2363718Y5924550D01*
X2348224Y5924550D01*
X2332730Y5929629D01*
X2327396Y5934710D01*
X2322316Y5945123D01*
X2773164Y6033515D02*
G01*
X2773164Y5924550D01*
X2773164Y6033515D02*
G01*
X2819900Y6033515D01*
X2835394Y6028436D01*
X2840728Y6023102D01*
X2845808Y6012687D01*
X2845808Y6002273D01*
X2840728Y5991860D01*
X2835394Y5986779D01*
X2819900Y5981700D01*
X2773164Y5981700D01*
X2809486Y5981700D02*
G01*
X2845808Y5924550D01*
X2880098Y6012687D02*
G01*
X2890512Y6018021D01*
X2906260Y6033515D01*
X2906260Y5924550D01*
X3002780Y6018021D02*
G01*
X2997700Y6028436D01*
X2981952Y6033515D01*
X2971538Y6033515D01*
X2956044Y6028436D01*
X2945630Y6012687D01*
X2940550Y5986779D01*
X2940550Y5960871D01*
X2945630Y5940044D01*
X2956044Y5929629D01*
X2971538Y5924550D01*
X2976872Y5924550D01*
X2992366Y5929629D01*
X3002780Y5940044D01*
X3008114Y5955537D01*
X3008114Y5960871D01*
X3002780Y5976365D01*
X2992366Y5986779D01*
X2976872Y5991860D01*
X2971538Y5991860D01*
X2956044Y5986779D01*
X2945630Y5976365D01*
X2940550Y5960871D01*
X3391395Y6020815D02*
G01*
X3391395Y5911850D01*
X3391395Y6020815D02*
G01*
X3438131Y6020815D01*
X3453625Y6015736D01*
X3458959Y6010402D01*
X3464039Y5999987D01*
X3464039Y5989573D01*
X3458959Y5979160D01*
X3453625Y5974079D01*
X3438131Y5969000D01*
X3391395Y5969000D01*
X3427717Y5969000D02*
G01*
X3464039Y5911850D01*
X3498329Y5999987D02*
G01*
X3508743Y6005321D01*
X3524491Y6020815D01*
X3524491Y5911850D01*
X3631425Y6020815D02*
G01*
X3579355Y5911850D01*
X3558781Y6020815D02*
G01*
X3631425Y6020815D01*
X1536700Y5672073D02*
G01*
X1536700Y5563107D01*
X1536700Y5672073D02*
G01*
X1583436Y5672073D01*
X1598929Y5666994D01*
X1604263Y5661660D01*
X1609344Y5651245D01*
X1609344Y5640831D01*
X1604263Y5630418D01*
X1598929Y5625337D01*
X1583436Y5620257D01*
X1536700Y5620257D01*
X1573021Y5620257D02*
G01*
X1609344Y5563107D01*
X1643634Y5651245D02*
G01*
X1654047Y5656579D01*
X1669795Y5672073D01*
X1669795Y5563107D01*
X1729994Y5672073D02*
G01*
X1714500Y5666994D01*
X1709165Y5656579D01*
X1709165Y5646165D01*
X1714500Y5635752D01*
X1724660Y5630418D01*
X1745487Y5625337D01*
X1761236Y5620257D01*
X1771650Y5609844D01*
X1776729Y5599429D01*
X1776729Y5583681D01*
X1771650Y5573268D01*
X1766315Y5568187D01*
X1750821Y5563107D01*
X1729994Y5563107D01*
X1714500Y5568187D01*
X1709165Y5573268D01*
X1704086Y5583681D01*
X1704086Y5599429D01*
X1709165Y5609844D01*
X1719579Y5620257D01*
X1735073Y5625337D01*
X1755902Y5630418D01*
X1766315Y5635752D01*
X1771650Y5646165D01*
X1771650Y5656579D01*
X1766315Y5666994D01*
X1750821Y5672073D01*
X1729994Y5672073D01*
X2154936Y5672073D02*
G01*
X2154936Y5563107D01*
X2154936Y5672073D02*
G01*
X2201672Y5672073D01*
X2217165Y5666994D01*
X2222500Y5661660D01*
X2227579Y5651245D01*
X2227579Y5640831D01*
X2222500Y5630418D01*
X2217165Y5625337D01*
X2201672Y5620257D01*
X2154936Y5620257D01*
X2191258Y5620257D02*
G01*
X2227579Y5563107D01*
X2261870Y5651245D02*
G01*
X2272284Y5656579D01*
X2288031Y5672073D01*
X2288031Y5563107D01*
X2389886Y5635752D02*
G01*
X2384552Y5620257D01*
X2374138Y5609844D01*
X2358643Y5604510D01*
X2353309Y5604510D01*
X2337815Y5609844D01*
X2327402Y5620257D01*
X2322322Y5635752D01*
X2322322Y5640831D01*
X2327402Y5656579D01*
X2337815Y5666994D01*
X2353309Y5672073D01*
X2358643Y5672073D01*
X2374138Y5666994D01*
X2384552Y5656579D01*
X2389886Y5635752D01*
X2389886Y5609844D01*
X2384552Y5583681D01*
X2374138Y5568187D01*
X2358643Y5563107D01*
X2348229Y5563107D01*
X2332736Y5568187D01*
X2327402Y5578602D01*
X2773159Y5672073D02*
G01*
X2773159Y5563107D01*
X2773159Y5672073D02*
G01*
X2819895Y5672073D01*
X2835389Y5666994D01*
X2840723Y5661660D01*
X2845803Y5651245D01*
X2845803Y5640831D01*
X2840723Y5630418D01*
X2835389Y5625337D01*
X2819895Y5620257D01*
X2773159Y5620257D01*
X2809481Y5620257D02*
G01*
X2845803Y5563107D01*
X2885427Y5646165D02*
G01*
X2885427Y5651245D01*
X2890507Y5661660D01*
X2895841Y5666994D01*
X2906255Y5672073D01*
X2926829Y5672073D01*
X2937243Y5666994D01*
X2942577Y5661660D01*
X2947657Y5651245D01*
X2947657Y5640831D01*
X2942577Y5630418D01*
X2932163Y5614923D01*
X2880093Y5563107D01*
X2952991Y5563107D01*
X3018269Y5672073D02*
G01*
X3002775Y5666994D01*
X2992361Y5651245D01*
X2987281Y5625337D01*
X2987281Y5609844D01*
X2992361Y5583681D01*
X3002775Y5568187D01*
X3018269Y5563107D01*
X3028683Y5563107D01*
X3044431Y5568187D01*
X3054845Y5583681D01*
X3059925Y5609844D01*
X3059925Y5625337D01*
X3054845Y5651245D01*
X3044431Y5666994D01*
X3028683Y5672073D01*
X3018269Y5672073D01*
X3391395Y5672073D02*
G01*
X3391395Y5563107D01*
X3391395Y5672073D02*
G01*
X3438131Y5672073D01*
X3453625Y5666994D01*
X3458959Y5661660D01*
X3464039Y5651245D01*
X3464039Y5640831D01*
X3458959Y5630418D01*
X3453625Y5625337D01*
X3438131Y5620257D01*
X3391395Y5620257D01*
X3427717Y5620257D02*
G01*
X3464039Y5563107D01*
X3503663Y5646165D02*
G01*
X3503663Y5651245D01*
X3508743Y5661660D01*
X3514077Y5666994D01*
X3524491Y5672073D01*
X3545065Y5672073D01*
X3555479Y5666994D01*
X3560813Y5661660D01*
X3565893Y5651245D01*
X3565893Y5640831D01*
X3560813Y5630418D01*
X3550399Y5614923D01*
X3498329Y5563107D01*
X3571227Y5563107D01*
X3605517Y5651245D02*
G01*
X3615931Y5656579D01*
X3631425Y5672073D01*
X3631425Y5563107D01*
X2392934Y2811645D02*
G01*
X2392934Y2702679D01*
X2392934Y2811645D02*
G01*
X2439670Y2811645D01*
X2455163Y2806565D01*
X2460497Y2801231D01*
X2465577Y2790817D01*
X2465577Y2780403D01*
X2460497Y2769989D01*
X2455163Y2764909D01*
X2439670Y2759829D01*
X2392934Y2759829D01*
X2429256Y2759829D02*
G01*
X2465577Y2702679D01*
X2505202Y2785737D02*
G01*
X2505202Y2790817D01*
X2510281Y2801231D01*
X2515615Y2806565D01*
X2526029Y2811645D01*
X2546604Y2811645D01*
X2557018Y2806565D01*
X2562352Y2801231D01*
X2567431Y2790817D01*
X2567431Y2780403D01*
X2562352Y2769989D01*
X2551938Y2754495D01*
X2499868Y2702679D01*
X2572765Y2702679D01*
X2612136Y2785737D02*
G01*
X2612136Y2790817D01*
X2617470Y2801231D01*
X2622550Y2806565D01*
X2632963Y2811645D01*
X2653791Y2811645D01*
X2664206Y2806565D01*
X2669286Y2801231D01*
X2674620Y2790817D01*
X2674620Y2780403D01*
X2669286Y2769989D01*
X2658872Y2754495D01*
X2607056Y2702679D01*
X2679700Y2702679D01*
X2324100Y2248915D02*
G01*
X2324100Y2139950D01*
X2324100Y2248915D02*
G01*
X2370836Y2248915D01*
X2386329Y2243836D01*
X2391663Y2238502D01*
X2396743Y2228087D01*
X2396743Y2217673D01*
X2391663Y2207260D01*
X2386329Y2202179D01*
X2370836Y2197100D01*
X2324100Y2197100D01*
X2360422Y2197100D02*
G01*
X2396743Y2139950D01*
X2436368Y2223007D02*
G01*
X2436368Y2228087D01*
X2441447Y2238502D01*
X2446781Y2243836D01*
X2457195Y2248915D01*
X2477770Y2248915D01*
X2488184Y2243836D01*
X2493518Y2238502D01*
X2498597Y2228087D01*
X2498597Y2217673D01*
X2493518Y2207260D01*
X2483104Y2191765D01*
X2431034Y2139950D01*
X2503931Y2139950D01*
X2548636Y2248915D02*
G01*
X2605786Y2248915D01*
X2574543Y2207260D01*
X2590038Y2207260D01*
X2600452Y2202179D01*
X2605786Y2197100D01*
X2610865Y2181352D01*
X2610865Y2170937D01*
X2605786Y2155444D01*
X2595372Y2145029D01*
X2579624Y2139950D01*
X2564129Y2139950D01*
X2548636Y2145029D01*
X2543302Y2150110D01*
X2538222Y2160523D01*
X1524000Y2811645D02*
G01*
X1524000Y2702679D01*
X1524000Y2811645D02*
G01*
X1570736Y2811645D01*
X1586229Y2806565D01*
X1591563Y2801231D01*
X1596644Y2790817D01*
X1596644Y2780403D01*
X1591563Y2769989D01*
X1586229Y2764909D01*
X1570736Y2759829D01*
X1524000Y2759829D01*
X1560321Y2759829D02*
G01*
X1596644Y2702679D01*
X1636268Y2785737D02*
G01*
X1636268Y2790817D01*
X1641347Y2801231D01*
X1646681Y2806565D01*
X1657095Y2811645D01*
X1677670Y2811645D01*
X1688084Y2806565D01*
X1693418Y2801231D01*
X1698497Y2790817D01*
X1698497Y2780403D01*
X1693418Y2769989D01*
X1683004Y2754495D01*
X1630934Y2702679D01*
X1703831Y2702679D01*
X1789937Y2811645D02*
G01*
X1738121Y2739001D01*
X1816100Y2739001D01*
X1789937Y2811645D02*
G01*
X1789937Y2702679D01*
X1524000Y3264915D02*
G01*
X1524000Y3155950D01*
X1524000Y3264915D02*
G01*
X1570736Y3264915D01*
X1586229Y3259836D01*
X1591563Y3254502D01*
X1596644Y3244087D01*
X1596644Y3233673D01*
X1591563Y3223260D01*
X1586229Y3218179D01*
X1570736Y3213100D01*
X1524000Y3213100D01*
X1560321Y3213100D02*
G01*
X1596644Y3155950D01*
X1636268Y3239007D02*
G01*
X1636268Y3244087D01*
X1641347Y3254502D01*
X1646681Y3259836D01*
X1657095Y3264915D01*
X1677670Y3264915D01*
X1688084Y3259836D01*
X1693418Y3254502D01*
X1698497Y3244087D01*
X1698497Y3233673D01*
X1693418Y3223260D01*
X1683004Y3207765D01*
X1630934Y3155950D01*
X1703831Y3155950D01*
X1800352Y3264915D02*
G01*
X1748536Y3264915D01*
X1743202Y3218179D01*
X1748536Y3223260D01*
X1764029Y3228594D01*
X1779523Y3228594D01*
X1795271Y3223260D01*
X1805686Y3213100D01*
X1810765Y3197352D01*
X1810765Y3186937D01*
X1805686Y3171444D01*
X1795271Y3161029D01*
X1779523Y3155950D01*
X1764029Y3155950D01*
X1748536Y3161029D01*
X1743202Y3166110D01*
X1738121Y3176523D01*
X2155449Y3264915D02*
G01*
X2155449Y3155950D01*
X2155449Y3264915D02*
G01*
X2202185Y3264915D01*
X2217679Y3259836D01*
X2223013Y3254502D01*
X2228093Y3244087D01*
X2228093Y3233673D01*
X2223013Y3223260D01*
X2217679Y3218179D01*
X2202185Y3213100D01*
X2155449Y3213100D01*
X2191771Y3213100D02*
G01*
X2228093Y3155950D01*
X2267717Y3239007D02*
G01*
X2267717Y3244087D01*
X2272797Y3254502D01*
X2278131Y3259836D01*
X2288545Y3264915D01*
X2309119Y3264915D01*
X2319533Y3259836D01*
X2324867Y3254502D01*
X2329947Y3244087D01*
X2329947Y3233673D01*
X2324867Y3223260D01*
X2314453Y3207765D01*
X2262383Y3155950D01*
X2335281Y3155950D01*
X2431801Y3249421D02*
G01*
X2426721Y3259836D01*
X2410973Y3264915D01*
X2400559Y3264915D01*
X2385065Y3259836D01*
X2374651Y3244087D01*
X2369571Y3218179D01*
X2369571Y3192271D01*
X2374651Y3171444D01*
X2385065Y3161029D01*
X2400559Y3155950D01*
X2405893Y3155950D01*
X2421387Y3161029D01*
X2431801Y3171444D01*
X2437135Y3186937D01*
X2437135Y3192271D01*
X2431801Y3207765D01*
X2421387Y3218179D01*
X2405893Y3223260D01*
X2400559Y3223260D01*
X2385065Y3218179D01*
X2374651Y3207765D01*
X2369571Y3192271D01*
X2786885Y3264915D02*
G01*
X2786885Y3155950D01*
X2786885Y3264915D02*
G01*
X2833621Y3264915D01*
X2849115Y3259836D01*
X2854449Y3254502D01*
X2859529Y3244087D01*
X2859529Y3233673D01*
X2854449Y3223260D01*
X2849115Y3218179D01*
X2833621Y3213100D01*
X2786885Y3213100D01*
X2823207Y3213100D02*
G01*
X2859529Y3155950D01*
X2899153Y3239007D02*
G01*
X2899153Y3244087D01*
X2904233Y3254502D01*
X2909567Y3259836D01*
X2919981Y3264915D01*
X2940555Y3264915D01*
X2950969Y3259836D01*
X2956303Y3254502D01*
X2961383Y3244087D01*
X2961383Y3233673D01*
X2956303Y3223260D01*
X2945889Y3207765D01*
X2893819Y3155950D01*
X2966717Y3155950D01*
X3073651Y3264915D02*
G01*
X3021835Y3155950D01*
X3001007Y3264915D02*
G01*
X3073651Y3264915D01*
X3418334Y3277615D02*
G01*
X3418334Y3168650D01*
X3418334Y3277615D02*
G01*
X3465070Y3277615D01*
X3480564Y3272536D01*
X3485898Y3267202D01*
X3490978Y3256787D01*
X3490978Y3246373D01*
X3485898Y3235960D01*
X3480564Y3230879D01*
X3465070Y3225800D01*
X3418334Y3225800D01*
X3454656Y3225800D02*
G01*
X3490978Y3168650D01*
X3530602Y3251707D02*
G01*
X3530602Y3256787D01*
X3535682Y3267202D01*
X3541016Y3272536D01*
X3551430Y3277615D01*
X3572004Y3277615D01*
X3582418Y3272536D01*
X3587752Y3267202D01*
X3592832Y3256787D01*
X3592832Y3246373D01*
X3587752Y3235960D01*
X3577338Y3220465D01*
X3525268Y3168650D01*
X3598166Y3168650D01*
X3658364Y3277615D02*
G01*
X3642870Y3272536D01*
X3637536Y3262121D01*
X3637536Y3251707D01*
X3642870Y3241294D01*
X3653284Y3235960D01*
X3673858Y3230879D01*
X3689606Y3225800D01*
X3700020Y3215386D01*
X3705100Y3204971D01*
X3705100Y3189223D01*
X3700020Y3178810D01*
X3694686Y3173729D01*
X3679192Y3168650D01*
X3658364Y3168650D01*
X3642870Y3173729D01*
X3637536Y3178810D01*
X3632456Y3189223D01*
X3632456Y3204971D01*
X3637536Y3215386D01*
X3647950Y3225800D01*
X3663444Y3230879D01*
X3684272Y3235960D01*
X3694686Y3241294D01*
X3700020Y3251707D01*
X3700020Y3262121D01*
X3694686Y3272536D01*
X3679192Y3277615D01*
X3658364Y3277615D01*
X2324100Y1836165D02*
G01*
X2324100Y1727200D01*
X2324100Y1836165D02*
G01*
X2370836Y1836165D01*
X2386329Y1831086D01*
X2391663Y1825752D01*
X2396743Y1815337D01*
X2396743Y1804923D01*
X2391663Y1794510D01*
X2386329Y1789429D01*
X2370836Y1784350D01*
X2324100Y1784350D01*
X2360422Y1784350D02*
G01*
X2396743Y1727200D01*
X2436368Y1810257D02*
G01*
X2436368Y1815337D01*
X2441447Y1825752D01*
X2446781Y1831086D01*
X2457195Y1836165D01*
X2477770Y1836165D01*
X2488184Y1831086D01*
X2493518Y1825752D01*
X2498597Y1815337D01*
X2498597Y1804923D01*
X2493518Y1794510D01*
X2483104Y1779015D01*
X2431034Y1727200D01*
X2503931Y1727200D01*
X2605786Y1799844D02*
G01*
X2600452Y1784350D01*
X2590038Y1773936D01*
X2574543Y1768602D01*
X2569209Y1768602D01*
X2553715Y1773936D01*
X2543302Y1784350D01*
X2538222Y1799844D01*
X2538222Y1804923D01*
X2543302Y1820671D01*
X2553715Y1831086D01*
X2569209Y1836165D01*
X2574543Y1836165D01*
X2590038Y1831086D01*
X2600452Y1820671D01*
X2605786Y1799844D01*
X2605786Y1773936D01*
X2600452Y1747773D01*
X2590038Y1732279D01*
X2574543Y1727200D01*
X2564129Y1727200D01*
X2548636Y1732279D01*
X2543302Y1742694D01*
X1524000Y4026915D02*
G01*
X1524000Y3917950D01*
X1524000Y4026915D02*
G01*
X1570736Y4026915D01*
X1586229Y4021836D01*
X1591563Y4016502D01*
X1596644Y4006087D01*
X1596644Y3995673D01*
X1591563Y3985260D01*
X1586229Y3980179D01*
X1570736Y3975100D01*
X1524000Y3975100D01*
X1560321Y3975100D02*
G01*
X1596644Y3917950D01*
X1641347Y4026915D02*
G01*
X1698497Y4026915D01*
X1667510Y3985260D01*
X1683004Y3985260D01*
X1693418Y3980179D01*
X1698497Y3975100D01*
X1703831Y3959352D01*
X1703831Y3948937D01*
X1698497Y3933444D01*
X1688084Y3923029D01*
X1672589Y3917950D01*
X1657095Y3917950D01*
X1641347Y3923029D01*
X1636268Y3928110D01*
X1630934Y3938523D01*
X1769110Y4026915D02*
G01*
X1753615Y4021836D01*
X1743202Y4006087D01*
X1738121Y3980179D01*
X1738121Y3964686D01*
X1743202Y3938523D01*
X1753615Y3923029D01*
X1769110Y3917950D01*
X1779523Y3917950D01*
X1795271Y3923029D01*
X1805686Y3938523D01*
X1810765Y3964686D01*
X1810765Y3980179D01*
X1805686Y4006087D01*
X1795271Y4021836D01*
X1779523Y4026915D01*
X1769110Y4026915D01*
X2155443Y4026915D02*
G01*
X2155443Y3917950D01*
X2155443Y4026915D02*
G01*
X2202179Y4026915D01*
X2217674Y4021836D01*
X2223008Y4016502D01*
X2228088Y4006087D01*
X2228088Y3995673D01*
X2223008Y3985260D01*
X2217674Y3980179D01*
X2202179Y3975100D01*
X2155443Y3975100D01*
X2191765Y3975100D02*
G01*
X2228088Y3917950D01*
X2272791Y4026915D02*
G01*
X2329941Y4026915D01*
X2298954Y3985260D01*
X2314447Y3985260D01*
X2324861Y3980179D01*
X2329941Y3975100D01*
X2335275Y3959352D01*
X2335275Y3948937D01*
X2329941Y3933444D01*
X2319527Y3923029D01*
X2304034Y3917950D01*
X2288540Y3917950D01*
X2272791Y3923029D01*
X2267711Y3928110D01*
X2262377Y3938523D01*
X2369565Y4006087D02*
G01*
X2379979Y4011421D01*
X2395474Y4026915D01*
X2395474Y3917950D01*
X2786890Y4026915D02*
G01*
X2786890Y3917950D01*
X2786890Y4026915D02*
G01*
X2833626Y4026915D01*
X2849120Y4021836D01*
X2854454Y4016502D01*
X2859534Y4006087D01*
X2859534Y3995673D01*
X2854454Y3985260D01*
X2849120Y3980179D01*
X2833626Y3975100D01*
X2786890Y3975100D01*
X2823212Y3975100D02*
G01*
X2859534Y3917950D01*
X2904238Y4026915D02*
G01*
X2961388Y4026915D01*
X2930400Y3985260D01*
X2945894Y3985260D01*
X2956308Y3980179D01*
X2961388Y3975100D01*
X2966722Y3959352D01*
X2966722Y3948937D01*
X2961388Y3933444D01*
X2950974Y3923029D01*
X2935480Y3917950D01*
X2919986Y3917950D01*
X2904238Y3923029D01*
X2899158Y3928110D01*
X2893824Y3938523D01*
X3006092Y4001007D02*
G01*
X3006092Y4006087D01*
X3011426Y4016502D01*
X3016506Y4021836D01*
X3026920Y4026915D01*
X3047748Y4026915D01*
X3058162Y4021836D01*
X3063242Y4016502D01*
X3068576Y4006087D01*
X3068576Y3995673D01*
X3063242Y3985260D01*
X3052828Y3969765D01*
X3001012Y3917950D01*
X3073656Y3917950D01*
X3418334Y4026915D02*
G01*
X3418334Y3917950D01*
X3418334Y4026915D02*
G01*
X3465070Y4026915D01*
X3480564Y4021836D01*
X3485898Y4016502D01*
X3490978Y4006087D01*
X3490978Y3995673D01*
X3485898Y3985260D01*
X3480564Y3980179D01*
X3465070Y3975100D01*
X3418334Y3975100D01*
X3454656Y3975100D02*
G01*
X3490978Y3917950D01*
X3535682Y4026915D02*
G01*
X3592832Y4026915D01*
X3561844Y3985260D01*
X3577338Y3985260D01*
X3587752Y3980179D01*
X3592832Y3975100D01*
X3598166Y3959352D01*
X3598166Y3948937D01*
X3592832Y3933444D01*
X3582418Y3923029D01*
X3566924Y3917950D01*
X3551430Y3917950D01*
X3535682Y3923029D01*
X3530602Y3928110D01*
X3525268Y3938523D01*
X3642870Y4026915D02*
G01*
X3700020Y4026915D01*
X3668778Y3985260D01*
X3684272Y3985260D01*
X3694686Y3980179D01*
X3700020Y3975100D01*
X3705100Y3959352D01*
X3705100Y3948937D01*
X3700020Y3933444D01*
X3689606Y3923029D01*
X3673858Y3917950D01*
X3658364Y3917950D01*
X3642870Y3923029D01*
X3637536Y3928110D01*
X3632456Y3938523D01*
X2541777Y1266444D02*
G01*
X2531363Y1256029D01*
X2526284Y1240536D01*
X2526284Y1219707D01*
X2531363Y1204213D01*
X2541777Y1193800D01*
X2552191Y1193800D01*
X2562606Y1198879D01*
X2567940Y1204213D01*
X2573020Y1214628D01*
X2583434Y1245870D01*
X2588513Y1256029D01*
X2593847Y1261363D01*
X2604261Y1266444D01*
X2619756Y1266444D01*
X2630170Y1256029D01*
X2635250Y1240536D01*
X2635250Y1219707D01*
X2630170Y1204213D01*
X2619756Y1193800D01*
X2526284Y1300734D02*
G01*
X2635250Y1342389D01*
X2526284Y1384045D02*
G01*
X2635250Y1342389D01*
X2547111Y1418336D02*
G01*
X2541777Y1428750D01*
X2526284Y1444244D01*
X2635250Y1444244D01*
D12*
X3387343Y1092200D02*
G01*
X3381756Y1103629D01*
X3364229Y1121155D01*
X3485641Y1121155D01*
X3364229Y1193800D02*
G01*
X3370072Y1176528D01*
X3387343Y1164844D01*
X3416300Y1159255D01*
X3433572Y1159255D01*
X3462527Y1164844D01*
X3479800Y1176528D01*
X3485641Y1193800D01*
X3485641Y1205229D01*
X3479800Y1222755D01*
X3462527Y1234186D01*
X3433572Y1240028D01*
X3416300Y1240028D01*
X3387343Y1234186D01*
X3370072Y1222755D01*
X3364229Y1205229D01*
X3364229Y1193800D01*
X3171443Y431800D02*
G01*
X3165856Y443229D01*
X3148329Y460755D01*
X3269741Y460755D01*
X2923286Y437642D02*
G01*
X2917443Y437642D01*
X2906013Y443229D01*
X2900172Y449071D01*
X2894329Y460755D01*
X2894329Y483870D01*
X2900172Y495300D01*
X2906013Y501142D01*
X2917443Y506729D01*
X2929127Y506729D01*
X2940558Y501142D01*
X2957829Y489457D01*
X3015741Y431800D01*
X3015741Y512571D01*
D11*
X-229615Y9601200D02*
G01*
X-151637Y9601200D01*
X-136144Y9606279D01*
X-125729Y9616694D01*
X-120650Y9632442D01*
X-120650Y9642855D01*
X-125729Y9658350D01*
X-136144Y9668763D01*
X-151637Y9673844D01*
X-229615Y9673844D01*
X-208787Y9708134D02*
G01*
X-214121Y9718547D01*
X-229615Y9734295D01*
X-120650Y9734295D01*
X2146300Y138684D02*
G01*
X2146300Y216662D01*
X2141220Y232155D01*
X2130806Y242570D01*
X2115058Y247650D01*
X2104643Y247650D01*
X2089150Y242570D01*
X2078736Y232155D01*
X2073656Y216662D01*
X2073656Y138684D01*
X2034031Y164592D02*
G01*
X2034031Y159512D01*
X2028952Y149097D01*
X2023618Y143763D01*
X2013204Y138684D01*
X1992629Y138684D01*
X1982215Y143763D01*
X1976881Y149097D01*
X1971802Y159512D01*
X1971802Y169926D01*
X1976881Y180339D01*
X1987295Y195834D01*
X2039365Y247650D01*
X1966468Y247650D01*
D13*
X2400071Y590575D02*
G01*
X2395499Y599719D01*
X2382037Y613181D01*
X2477287Y613181D01*
X2382037Y670585D02*
G01*
X2386609Y656869D01*
X2400071Y647725D01*
X2422931Y643407D01*
X2436393Y643407D01*
X2459253Y647725D01*
X2472969Y656869D01*
X2477287Y670585D01*
X2477287Y679729D01*
X2472969Y693191D01*
X2459253Y702335D01*
X2436393Y706907D01*
X2422931Y706907D01*
X2400071Y702335D01*
X2386609Y693191D01*
X2382037Y679729D01*
X2382037Y670585D01*
X2382037Y736879D02*
G01*
X2477287Y773201D01*
X2382037Y809777D02*
G01*
X2477287Y773201D01*
D11*
X2578100Y8027415D02*
G01*
X2578100Y7949437D01*
X2583179Y7933944D01*
X2593593Y7923529D01*
X2609341Y7918450D01*
X2619756Y7918450D01*
X2635250Y7923529D01*
X2645663Y7933944D01*
X2650743Y7949437D01*
X2650743Y8027415D01*
X2695447Y8027415D02*
G01*
X2752597Y8027415D01*
X2721609Y7985760D01*
X2737104Y7985760D01*
X2747518Y7980679D01*
X2752597Y7975600D01*
X2757931Y7959852D01*
X2757931Y7949437D01*
X2752597Y7933944D01*
X2742184Y7923529D01*
X2726690Y7918450D01*
X2711195Y7918450D01*
X2695447Y7923529D01*
X2690368Y7928610D01*
X2685034Y7939023D01*
X2667000Y5322315D02*
G01*
X2667000Y5244337D01*
X2672079Y5228844D01*
X2682493Y5218429D01*
X2698241Y5213350D01*
X2708656Y5213350D01*
X2724150Y5218429D01*
X2734563Y5228844D01*
X2739643Y5244337D01*
X2739643Y5322315D01*
X2826004Y5322315D02*
G01*
X2773934Y5249671D01*
X2851911Y5249671D01*
X2826004Y5322315D02*
G01*
X2826004Y5213350D01*
D14*
X1663001Y2071977D02*
G01*
X1663001Y1991974D01*
X1552026Y2102962D02*
G01*
X1632023Y2102962D01*
X1552026Y1960996D02*
G01*
X1632023Y1960996D01*
X1494436Y2103544D02*
G01*
X1414437Y2103544D01*
X1383454Y2072561D02*
G01*
X1383454Y1992563D01*
X1494436Y1961583D02*
G01*
X1414437Y1961583D01*
X1677741Y6288377D02*
G01*
X1677741Y6208374D01*
X1566765Y6319362D02*
G01*
X1646763Y6319362D01*
X1566765Y6177396D02*
G01*
X1646763Y6177396D01*
X1509176Y6319944D02*
G01*
X1429176Y6319944D01*
X1398193Y6288961D02*
G01*
X1398193Y6208963D01*
X1509176Y6177983D02*
G01*
X1429176Y6177983D01*
X2295128Y6262977D02*
G01*
X2295128Y6182974D01*
X2184153Y6293962D02*
G01*
X2264150Y6293962D01*
X2184153Y6151996D02*
G01*
X2264150Y6151996D01*
X2126564Y6294544D02*
G01*
X2046564Y6294544D01*
X2015581Y6263561D02*
G01*
X2015581Y6183563D01*
X2126564Y6152583D02*
G01*
X2046564Y6152583D01*
X2912516Y6263485D02*
G01*
X2912516Y6183482D01*
X2801541Y6294470D02*
G01*
X2881538Y6294470D01*
X2801541Y6152504D02*
G01*
X2881538Y6152504D01*
X2743951Y6295052D02*
G01*
X2663952Y6295052D01*
X2632969Y6264069D02*
G01*
X2632969Y6184071D01*
X2743951Y6153091D02*
G01*
X2663952Y6153091D01*
X3529901Y6263485D02*
G01*
X3529901Y6183482D01*
X3418926Y6294470D02*
G01*
X3498923Y6294470D01*
X3418926Y6152504D02*
G01*
X3498923Y6152504D01*
X3361336Y6295052D02*
G01*
X3281337Y6295052D01*
X3250354Y6264069D02*
G01*
X3250354Y6184071D01*
X3361336Y6153091D02*
G01*
X3281337Y6153091D01*
X1665041Y3481677D02*
G01*
X1665041Y3401674D01*
X1554065Y3512662D02*
G01*
X1634063Y3512662D01*
X1554065Y3370696D02*
G01*
X1634063Y3370696D01*
X1496476Y3513244D02*
G01*
X1416476Y3513244D01*
X1385493Y3482261D02*
G01*
X1385493Y3402263D01*
X1496476Y3371283D02*
G01*
X1416476Y3371283D01*
X2295636Y3481677D02*
G01*
X2295636Y3401674D01*
X2184661Y3512662D02*
G01*
X2264658Y3512662D01*
X2184661Y3370696D02*
G01*
X2264658Y3370696D01*
X2127072Y3513244D02*
G01*
X2047072Y3513244D01*
X2016089Y3482261D02*
G01*
X2016089Y3402263D01*
X2127072Y3371283D02*
G01*
X2047072Y3371283D01*
X2926237Y3481677D02*
G01*
X2926237Y3401674D01*
X2815262Y3512662D02*
G01*
X2895259Y3512662D01*
X2815262Y3370696D02*
G01*
X2895259Y3370696D01*
X2757672Y3513244D02*
G01*
X2677673Y3513244D01*
X2646690Y3482261D02*
G01*
X2646690Y3402263D01*
X2757672Y3371283D02*
G01*
X2677673Y3371283D01*
X3556838Y3481677D02*
G01*
X3556838Y3401674D01*
X3445863Y3512662D02*
G01*
X3525860Y3512662D01*
X3445863Y3370696D02*
G01*
X3525860Y3370696D01*
X3388273Y3513244D02*
G01*
X3308273Y3513244D01*
X3277290Y3482261D02*
G01*
X3277290Y3402263D01*
X3388273Y3371283D02*
G01*
X3308273Y3371283D01*
D15*
X3182099Y2519215D02*
G01*
X3199483Y2519215D01*
X3182099Y2670243D02*
G01*
X3199483Y2670243D01*
X3182099Y2670243D02*
G01*
X3182099Y2681348D01*
X3199483Y2681348D01*
X3199483Y2508110D02*
G01*
X3182099Y2508110D01*
X3182099Y2519215D01*
X3199483Y2519215D02*
G01*
X3199483Y2508110D01*
X3199483Y2681348D02*
G01*
X3199483Y2670243D01*
X3257387Y2681348D02*
G01*
X3257387Y2508110D01*
D11*
X3243099Y2681348D02*
G01*
X3243099Y2508110D01*
X3199483Y2681348D02*
G01*
X3480716Y2681348D01*
X3480716Y2681348D02*
G01*
X3480716Y2664548D01*
X3199483Y2508110D02*
G01*
X3480716Y2508110D01*
X3480716Y2508110D02*
G01*
X3480716Y2524909D01*
D15*
X1758200Y1434414D02*
G01*
X1740816Y1434414D01*
X1758200Y1283385D02*
G01*
X1740816Y1283385D01*
X1758200Y1283385D02*
G01*
X1758200Y1272280D01*
X1740816Y1272280D01*
X1740816Y1445519D02*
G01*
X1758200Y1445519D01*
X1758200Y1434414D01*
X1740816Y1434414D02*
G01*
X1740816Y1445519D01*
X1740816Y1272280D02*
G01*
X1740816Y1283385D01*
X1682912Y1272280D02*
G01*
X1682912Y1445519D01*
D11*
X1697200Y1272280D02*
G01*
X1697200Y1445519D01*
X1740816Y1272280D02*
G01*
X1459583Y1272280D01*
X1459583Y1272280D02*
G01*
X1459583Y1289080D01*
X1740816Y1445519D02*
G01*
X1459583Y1445519D01*
X1459583Y1445519D02*
G01*
X1459583Y1428719D01*
D14*
X139606Y7924800D02*
G01*
X11501Y7924800D01*
X839607Y7924800D02*
G01*
X303395Y7924800D01*
X508901Y8529599D02*
G01*
X1117602Y8529599D01*
X1117602Y7924800D01*
X1003396Y7924800D01*
X11501Y8529599D02*
G01*
X334098Y8529599D01*
X11501Y8484575D02*
G01*
X-292097Y8484575D01*
X-292097Y7975600D01*
X11501Y7975600D01*
X11501Y8529599D02*
G01*
X11501Y7929600D01*
X139606Y6803572D02*
G01*
X11501Y6803572D01*
X839607Y6803572D02*
G01*
X303395Y6803572D01*
X508901Y7408372D02*
G01*
X1117602Y7408372D01*
X1117602Y6803572D01*
X1003396Y6803572D01*
X11501Y7408372D02*
G01*
X334098Y7408372D01*
X11501Y7363348D02*
G01*
X-292097Y7363348D01*
X-292097Y6854372D01*
X11501Y6854372D01*
X11501Y7408372D02*
G01*
X11501Y6808373D01*
X139606Y5682348D02*
G01*
X11501Y5682348D01*
X839607Y5682348D02*
G01*
X303395Y5682348D01*
X508901Y6287147D02*
G01*
X1117602Y6287147D01*
X1117602Y5682348D01*
X1003396Y5682348D01*
X11501Y6287147D02*
G01*
X334098Y6287147D01*
X11501Y6242123D02*
G01*
X-292097Y6242123D01*
X-292097Y5733148D01*
X11501Y5733148D01*
X11501Y6287147D02*
G01*
X11501Y5687148D01*
X139606Y4561118D02*
G01*
X11501Y4561118D01*
X839607Y4561118D02*
G01*
X303395Y4561118D01*
X508901Y5165918D02*
G01*
X1117602Y5165918D01*
X1117602Y4561118D01*
X1003396Y4561118D01*
X11501Y5165918D02*
G01*
X334098Y5165918D01*
X11501Y5120894D02*
G01*
X-292097Y5120894D01*
X-292097Y4611918D01*
X11501Y4611918D01*
X11501Y5165918D02*
G01*
X11501Y4565919D01*
X139606Y3439891D02*
G01*
X11501Y3439891D01*
X839607Y3439891D02*
G01*
X303395Y3439891D01*
X508901Y4044690D02*
G01*
X1117602Y4044690D01*
X1117602Y3439891D01*
X1003396Y3439891D01*
X11501Y4044690D02*
G01*
X334098Y4044690D01*
X11501Y3999666D02*
G01*
X-292097Y3999666D01*
X-292097Y3490691D01*
X11501Y3490691D01*
X11501Y4044690D02*
G01*
X11501Y3444692D01*
X139606Y2318659D02*
G01*
X11501Y2318659D01*
X839607Y2318659D02*
G01*
X303395Y2318659D01*
X508901Y2923458D02*
G01*
X1117602Y2923458D01*
X1117602Y2318659D01*
X1003396Y2318659D01*
X11501Y2923458D02*
G01*
X334098Y2923458D01*
X11501Y2878434D02*
G01*
X-292097Y2878434D01*
X-292097Y2369459D01*
X11501Y2369459D01*
X11501Y2923458D02*
G01*
X11501Y2323459D01*
X139606Y1197432D02*
G01*
X11501Y1197432D01*
X839607Y1197432D02*
G01*
X303395Y1197432D01*
X508901Y1802231D02*
G01*
X1117602Y1802231D01*
X1117602Y1197432D01*
X1003396Y1197432D01*
X11501Y1802231D02*
G01*
X334098Y1802231D01*
X11501Y1757207D02*
G01*
X-292097Y1757207D01*
X-292097Y1248232D01*
X11501Y1248232D01*
X11501Y1802231D02*
G01*
X11501Y1202232D01*
X139606Y76200D02*
G01*
X11501Y76200D01*
X839607Y76200D02*
G01*
X303395Y76200D01*
X508901Y680999D02*
G01*
X1117602Y680999D01*
X1117602Y76200D01*
X1003396Y76200D01*
X11501Y680999D02*
G01*
X334098Y680999D01*
X11501Y635975D02*
G01*
X-292097Y635975D01*
X-292097Y127000D01*
X11501Y127000D01*
X11501Y680999D02*
G01*
X11501Y81000D01*
D11*
X1564573Y1553189D02*
G01*
X1660461Y1553189D01*
X1660461Y1685310D01*
X1564573Y1685310D01*
X1479331Y1553189D02*
G01*
X1383444Y1553189D01*
X1383444Y1685310D01*
X1479331Y1685310D01*
X1642821Y8366739D02*
G01*
X1738708Y8366739D01*
X1738708Y8498860D01*
X1642821Y8498860D01*
X1557578Y8366739D02*
G01*
X1461691Y8366739D01*
X1461691Y8498860D01*
X1557578Y8498860D01*
X2231257Y8366739D02*
G01*
X2327145Y8366739D01*
X2327145Y8498860D01*
X2231257Y8498860D01*
X2146015Y8366739D02*
G01*
X2050127Y8366739D01*
X2050127Y8498860D01*
X2146015Y8498860D01*
X2819684Y8366739D02*
G01*
X2915572Y8366739D01*
X2915572Y8498860D01*
X2819684Y8498860D01*
X2734442Y8366739D02*
G01*
X2638554Y8366739D01*
X2638554Y8498860D01*
X2734442Y8498860D01*
X3408121Y8366739D02*
G01*
X3504008Y8366739D01*
X3504008Y8498860D01*
X3408121Y8498860D01*
X3322878Y8366739D02*
G01*
X3226991Y8366739D01*
X3226991Y8498860D01*
X3322878Y8498860D01*
X1642821Y7992089D02*
G01*
X1738708Y7992089D01*
X1738708Y8124210D01*
X1642821Y8124210D01*
X1557578Y7992089D02*
G01*
X1461691Y7992089D01*
X1461691Y8124210D01*
X1557578Y8124210D01*
X2231255Y7992089D02*
G01*
X2327142Y7992089D01*
X2327142Y8124210D01*
X2231255Y8124210D01*
X2146012Y7992089D02*
G01*
X2050125Y7992089D01*
X2050125Y8124210D01*
X2146012Y8124210D01*
X2819687Y7992089D02*
G01*
X2915574Y7992089D01*
X2915574Y8124210D01*
X2819687Y8124210D01*
X2734444Y7992089D02*
G01*
X2638557Y7992089D01*
X2638557Y8124210D01*
X2734444Y8124210D01*
X3408121Y7992089D02*
G01*
X3504008Y7992089D01*
X3504008Y8124210D01*
X3408121Y8124210D01*
X3322878Y7992089D02*
G01*
X3226991Y7992089D01*
X3226991Y8124210D01*
X3322878Y8124210D01*
X1579321Y6582389D02*
G01*
X1675208Y6582389D01*
X1675208Y6714510D01*
X1579321Y6714510D01*
X1494078Y6582389D02*
G01*
X1398191Y6582389D01*
X1398191Y6714510D01*
X1494078Y6714510D01*
X2197557Y6582389D02*
G01*
X2293444Y6582389D01*
X2293444Y6714510D01*
X2197557Y6714510D01*
X2112314Y6582389D02*
G01*
X2016427Y6582389D01*
X2016427Y6714510D01*
X2112314Y6714510D01*
X2815780Y6582389D02*
G01*
X2911668Y6582389D01*
X2911668Y6714510D01*
X2815780Y6714510D01*
X2730538Y6582389D02*
G01*
X2634650Y6582389D01*
X2634650Y6714510D01*
X2730538Y6714510D01*
X3434016Y6582389D02*
G01*
X3529904Y6582389D01*
X3529904Y6714510D01*
X3434016Y6714510D01*
X3348774Y6582389D02*
G01*
X3252886Y6582389D01*
X3252886Y6714510D01*
X3348774Y6714510D01*
X1579321Y5788639D02*
G01*
X1675208Y5788639D01*
X1675208Y5920760D01*
X1579321Y5920760D01*
X1494078Y5788639D02*
G01*
X1398191Y5788639D01*
X1398191Y5920760D01*
X1494078Y5920760D01*
X2197552Y5750539D02*
G01*
X2293439Y5750539D01*
X2293439Y5882660D01*
X2197552Y5882660D01*
X2112309Y5750539D02*
G01*
X2016422Y5750539D01*
X2016422Y5882660D01*
X2112309Y5882660D01*
X2815785Y5750539D02*
G01*
X2911673Y5750539D01*
X2911673Y5882660D01*
X2815785Y5882660D01*
X2730543Y5750539D02*
G01*
X2634655Y5750539D01*
X2634655Y5882660D01*
X2730543Y5882660D01*
X3434016Y5737839D02*
G01*
X3529904Y5737839D01*
X3529904Y5869960D01*
X3434016Y5869960D01*
X3348774Y5737839D02*
G01*
X3252886Y5737839D01*
X3252886Y5869960D01*
X3348774Y5869960D01*
X1579321Y5389097D02*
G01*
X1675208Y5389097D01*
X1675208Y5521218D01*
X1579321Y5521218D01*
X1494078Y5389097D02*
G01*
X1398191Y5389097D01*
X1398191Y5521218D01*
X1494078Y5521218D01*
X2197557Y5389097D02*
G01*
X2293444Y5389097D01*
X2293444Y5521218D01*
X2197557Y5521218D01*
X2112314Y5389097D02*
G01*
X2016427Y5389097D01*
X2016427Y5521218D01*
X2112314Y5521218D01*
X2815780Y5389097D02*
G01*
X2911668Y5389097D01*
X2911668Y5521218D01*
X2815780Y5521218D01*
X2730538Y5389097D02*
G01*
X2634650Y5389097D01*
X2634650Y5521218D01*
X2730538Y5521218D01*
X3434016Y5389097D02*
G01*
X3529904Y5389097D01*
X3529904Y5521218D01*
X3434016Y5521218D01*
X3348774Y5389097D02*
G01*
X3252886Y5389097D01*
X3252886Y5521218D01*
X3348774Y5521218D01*
X2435555Y2528669D02*
G01*
X2531442Y2528669D01*
X2531442Y2660789D01*
X2435555Y2660789D01*
X2350312Y2528669D02*
G01*
X2254425Y2528669D01*
X2254425Y2660789D01*
X2350312Y2660789D01*
X2366721Y1965939D02*
G01*
X2462608Y1965939D01*
X2462608Y2098060D01*
X2366721Y2098060D01*
X2281478Y1965939D02*
G01*
X2185591Y1965939D01*
X2185591Y2098060D01*
X2281478Y2098060D01*
X1566621Y2528669D02*
G01*
X1662508Y2528669D01*
X1662508Y2660789D01*
X1566621Y2660789D01*
X1481378Y2528669D02*
G01*
X1385491Y2528669D01*
X1385491Y2660789D01*
X1481378Y2660789D01*
X1566621Y2981939D02*
G01*
X1662508Y2981939D01*
X1662508Y3114060D01*
X1566621Y3114060D01*
X1481378Y2981939D02*
G01*
X1385491Y2981939D01*
X1385491Y3114060D01*
X1481378Y3114060D01*
X2198070Y2981939D02*
G01*
X2293957Y2981939D01*
X2293957Y3114060D01*
X2198070Y3114060D01*
X2112827Y2981939D02*
G01*
X2016940Y2981939D01*
X2016940Y3114060D01*
X2112827Y3114060D01*
X2829506Y2981939D02*
G01*
X2925394Y2981939D01*
X2925394Y3114060D01*
X2829506Y3114060D01*
X2744264Y2981939D02*
G01*
X2648376Y2981939D01*
X2648376Y3114060D01*
X2744264Y3114060D01*
X3460955Y2994639D02*
G01*
X3556843Y2994639D01*
X3556843Y3126760D01*
X3460955Y3126760D01*
X3375713Y2994639D02*
G01*
X3279825Y2994639D01*
X3279825Y3126760D01*
X3375713Y3126760D01*
X2366721Y1553189D02*
G01*
X2462608Y1553189D01*
X2462608Y1685310D01*
X2366721Y1685310D01*
X2281478Y1553189D02*
G01*
X2185591Y1553189D01*
X2185591Y1685310D01*
X2281478Y1685310D01*
X1566621Y3743939D02*
G01*
X1662508Y3743939D01*
X1662508Y3876060D01*
X1566621Y3876060D01*
X1481378Y3743939D02*
G01*
X1385491Y3743939D01*
X1385491Y3876060D01*
X1481378Y3876060D01*
X2198065Y3743939D02*
G01*
X2293952Y3743939D01*
X2293952Y3876060D01*
X2198065Y3876060D01*
X2112822Y3743939D02*
G01*
X2016935Y3743939D01*
X2016935Y3876060D01*
X2112822Y3876060D01*
X2829511Y3743939D02*
G01*
X2925399Y3743939D01*
X2925399Y3876060D01*
X2829511Y3876060D01*
X2744269Y3743939D02*
G01*
X2648381Y3743939D01*
X2648381Y3876060D01*
X2744269Y3876060D01*
X3460955Y3743939D02*
G01*
X3556843Y3743939D01*
X3556843Y3876060D01*
X3460955Y3876060D01*
X3375713Y3743939D02*
G01*
X3279825Y3743939D01*
X3279825Y3876060D01*
X3375713Y3876060D01*
X3543300Y1651000D02*
G01*
X3543300Y1701800D01*
X3594100Y1739900D01*
X3594100Y2209800D01*
X2705100Y2209800D01*
X2705100Y2082800D01*
X2679700Y2082800D01*
X2679700Y1955800D01*
X2705100Y1955800D01*
X2705100Y1257300D01*
X2679700Y1257300D01*
X2679700Y1130300D01*
X2705100Y1130300D01*
X2705100Y431800D01*
X2679700Y431800D01*
X2679700Y304800D01*
X2705100Y304800D01*
X2705100Y177800D01*
X3594100Y177800D01*
X3594100Y622300D01*
X3581400Y622300D01*
X3581400Y749300D01*
X3594100Y749300D01*
X3594100Y990600D01*
X3492500Y990600D01*
X3467100Y990600D01*
X3467100Y304800D01*
X2832100Y304800D01*
X2832100Y2082800D01*
X3467100Y2082800D01*
X3467100Y1651000D01*
X3492500Y1651000D01*
X3543300Y1651000D01*
X3543300Y1498600D01*
X3492500Y1498600D01*
X3467100Y1498600D01*
X3467100Y1397000D01*
X3390900Y1397000D01*
X3390900Y990600D01*
X3467100Y990600D01*
X3467100Y1397000D02*
G01*
X3492500Y1397000D01*
X3594100Y1397000D01*
X3594100Y1409700D01*
X3543300Y1447800D01*
X3543300Y1498600D01*
X3594100Y1397000D02*
G01*
X3594100Y990600D01*
X3467100Y1651000D02*
G01*
X3467100Y1498600D01*
D16*
X3492500Y1498600D02*
G01*
X3492500Y1397000D01*
X3492500Y1651000D02*
G01*
X3492500Y2108200D01*
X2806700Y2108200D01*
X2806700Y279400D01*
X3492500Y279400D01*
X3492500Y990600D01*
D12*
X38100Y9347200D02*
G01*
X-88900Y9347200D01*
X-88900Y9855200D01*
X38100Y9855200D01*
X38100Y10490200D01*
X3594100Y10490200D01*
X3594100Y8712200D01*
X38100Y8712200D01*
X38100Y9347200D01*
X165100Y9347200D01*
X165100Y9855200D01*
X38100Y9855200D01*
D14*
X2305050Y311175D02*
G01*
X2292350Y311175D01*
X2292350Y1073175D01*
X2305050Y1073175D01*
X2305050Y311175D01*
D17*
X1689100Y7175500D02*
G01*
X3467100Y7175500D01*
X3467100Y7683500D01*
X1689100Y7683500D01*
X1689100Y7175500D01*
X1778000Y4470400D02*
G01*
X3556000Y4470400D01*
X3556000Y4978400D01*
X1778000Y4978400D01*
X1778000Y4470400D01*
D14*
G75*
G01*
X1383449Y2072561D02*
G02*
X1414432Y2103544I30983J0D01*
G75*
G01*
X1414432Y1961578D02*
G02*
X1383449Y1992564I0J30983D01*
G75*
G01*
X1632019Y2102963D02*
G02*
X1663001Y2071977I0J-30983D01*
G75*
G01*
X1663001Y1991980D02*
G02*
X1632019Y1960997I-30982J0D01*
G75*
G01*
X1398189Y6288961D02*
G02*
X1429172Y6319944I30983J0D01*
G75*
G01*
X1429172Y6177978D02*
G02*
X1398189Y6208964I0J30983D01*
G75*
G01*
X1646758Y6319363D02*
G02*
X1677741Y6288377I0J-30983D01*
G75*
G01*
X1677741Y6208380D02*
G02*
X1646758Y6177397I-30983J0D01*
G75*
G01*
X2015576Y6263561D02*
G02*
X2046559Y6294544I30983J0D01*
G75*
G01*
X2046559Y6152578D02*
G02*
X2015576Y6183564I0J30983D01*
G75*
G01*
X2264146Y6293963D02*
G02*
X2295129Y6262977I0J-30983D01*
G75*
G01*
X2295129Y6182980D02*
G02*
X2264146Y6151997I-30983J0D01*
G75*
G01*
X2632964Y6264069D02*
G02*
X2663947Y6295052I30983J0D01*
G75*
G01*
X2663947Y6153086D02*
G02*
X2632964Y6184072I0J30983D01*
G75*
G01*
X2881533Y6294471D02*
G02*
X2912516Y6263485I0J-30983D01*
G75*
G01*
X2912516Y6183488D02*
G02*
X2881533Y6152505I-30983J0D01*
G75*
G01*
X3250349Y6264069D02*
G02*
X3281332Y6295052I30983J0D01*
G75*
G01*
X3281332Y6153086D02*
G02*
X3250349Y6184072I0J30983D01*
G75*
G01*
X3498919Y6294471D02*
G02*
X3529901Y6263485I0J-30983D01*
G75*
G01*
X3529901Y6183488D02*
G02*
X3498919Y6152505I-30982J0D01*
G75*
G01*
X1385489Y3482261D02*
G02*
X1416472Y3513244I30983J0D01*
G75*
G01*
X1416472Y3371278D02*
G02*
X1385489Y3402264I0J30983D01*
G75*
G01*
X1634058Y3512663D02*
G02*
X1665041Y3481677I0J-30983D01*
G75*
G01*
X1665041Y3401680D02*
G02*
X1634058Y3370697I-30983J0D01*
G75*
G01*
X2016084Y3482261D02*
G02*
X2047067Y3513244I30983J0D01*
G75*
G01*
X2047067Y3371278D02*
G02*
X2016084Y3402264I0J30983D01*
G75*
G01*
X2264654Y3512663D02*
G02*
X2295637Y3481677I0J-30983D01*
G75*
G01*
X2295637Y3401680D02*
G02*
X2264654Y3370697I-30983J0D01*
G75*
G01*
X2646685Y3482261D02*
G02*
X2677668Y3513244I30983J0D01*
G75*
G01*
X2677668Y3371278D02*
G02*
X2646685Y3402264I0J30983D01*
G75*
G01*
X2895255Y3512663D02*
G02*
X2926237Y3481677I0J-30983D01*
G75*
G01*
X2926237Y3401680D02*
G02*
X2895255Y3370697I-30982J0D01*
G75*
G01*
X3277286Y3482261D02*
G02*
X3308269Y3513244I30983J0D01*
G75*
G01*
X3308269Y3371278D02*
G02*
X3277286Y3402264I0J30983D01*
G75*
G01*
X3525855Y3512663D02*
G02*
X3556838Y3481677I0J-30983D01*
G75*
G01*
X3556838Y3401680D02*
G02*
X3525855Y3370697I-30983J0D01*
G75*
G01*
X2292345Y1073186D02*
G03*
X2292345Y311186I-126575J-381000D01*
G75*
G01
X1841500Y7277100D02*
G03X1841500Y7277100I-25400J0D01*
G75*
G01
X1930400Y4572000D02*
G03X1930400Y4572000I-25400J0D01*
M02*
