G04 Layer: BottomLayer*
G04 EasyEDA v6.5.22, 2023-04-13 12:14:21*
G04 8c6dcb5ec9fe4ba2bbc49dbc1e847b49,f016fa541b524367aba1ea0f7d3472e8,10*
G04 Gerber Generator version 0.2*
G04 Scale: 100 percent, Rotated: No, Reflected: No *
G04 Dimensions in millimeters *
G04 leading zeros omitted , absolute positions ,4 integer and 5 decimal *
%FSLAX45Y45*%
%MOMM*%

%AMMACRO1*4,1,8,-0.3401,0.8214,-0.8214,0.3401,-0.8214,-0.3401,-0.3401,-0.8214,0.3401,-0.8214,0.8214,-0.3401,0.8214,0.3401,0.3401,0.8214,-0.3401,0.8214,0*%
%ADD10C,0.2540*%
%ADD11O,1.7999964X1.1999976*%
%ADD12MACRO1*%
%ADD13C,1.3000*%
%ADD14C,1.5240*%
%ADD15R,1.3970X1.3970*%
%ADD16C,1.3970*%
%ADD17C,0.6096*%
%ADD18C,0.0106*%

%LPD*%
D10*
X2866390Y6116218D02*
G01*
X3466642Y6116218D01*
X3473246Y6122822D01*
X1589760Y6103721D02*
G01*
X1632788Y6060694D01*
X2810865Y6060694D01*
X2866390Y6116218D01*
X2165350Y946175D02*
G01*
X537565Y946175D01*
X221513Y1262227D01*
X2324100Y7810500D02*
G01*
X2324100Y7789875D01*
X2421585Y7692389D01*
X2713990Y7692389D01*
X2832100Y7810500D01*
X2324100Y7810500D02*
G01*
X2215184Y7701584D01*
X509523Y7701584D01*
X221513Y7989595D01*
X165100Y8839200D02*
G01*
X117347Y8791447D01*
X117347Y8093760D01*
X221513Y7989595D01*
X2912490Y939800D02*
G01*
X2906115Y946175D01*
X2165350Y946175D01*
X3022600Y1193800D02*
G01*
X3276600Y1193800D01*
X3022600Y1447800D02*
G01*
X3276600Y1447800D01*
X3022600Y939800D02*
G01*
X2912490Y939800D01*
X2832100Y7048500D02*
G01*
X2732328Y6948728D01*
X2423871Y6948728D01*
X2324100Y7048500D01*
X2921000Y4343400D02*
G01*
X2814447Y4236846D01*
X2519552Y4236846D01*
X2413000Y4343400D01*
X2413000Y5105400D02*
G01*
X2523134Y4995265D01*
X2810865Y4995265D01*
X2921000Y5105400D01*
X2094484Y6421628D02*
G01*
X2986328Y6421628D01*
X3226028Y6661327D01*
X2703525Y6129934D02*
G01*
X1958466Y6129934D01*
X1529664Y6558737D01*
X1496110Y2764561D02*
G01*
X1609039Y2764561D01*
X2104212Y3259734D01*
X2104212Y3317519D01*
X3022600Y1701800D02*
G01*
X3276600Y1701800D01*
X2667000Y4343400D02*
G01*
X2764916Y4441317D01*
X2978175Y4441317D01*
X3023361Y4396130D01*
X3023361Y4117086D01*
X2991586Y4085310D01*
X2667000Y5105400D02*
G01*
X2773045Y5211445D01*
X2959861Y5211445D01*
X3019043Y5152262D01*
X3019043Y5057698D01*
X2521508Y4560163D01*
X2231466Y4560163D01*
X2013229Y4341926D01*
X2013229Y3368979D01*
X1437563Y2793314D01*
X1437563Y1926742D01*
X1446606Y1917700D01*
X3149600Y685800D02*
G01*
X3149600Y980947D01*
X3063747Y1066800D01*
X2137003Y1066800D01*
X1865655Y1338148D01*
X3149600Y685800D02*
G01*
X3276600Y685800D01*
X3022600Y685800D02*
G01*
X3149600Y685800D01*
X421512Y8469604D02*
G01*
X901522Y7989595D01*
X921512Y7989595D01*
X1816100Y7810500D02*
G01*
X1100607Y7810500D01*
X921512Y7989595D01*
X2030501Y6710959D02*
G01*
X2030501Y6554851D01*
X2030501Y6710959D02*
G01*
X1078941Y6710959D01*
X921512Y6868388D01*
X3340100Y7048500D02*
G01*
X3002559Y6710959D01*
X2030501Y6710959D01*
X921512Y5747130D02*
G01*
X2689936Y5747130D01*
X2848508Y5905703D01*
X3340100Y7810500D02*
G01*
X3231184Y7919415D01*
X3056509Y7919415D01*
X2973527Y7836433D01*
X2973527Y7804556D01*
X2494534Y7325563D01*
X1209979Y7325563D01*
X421512Y6537096D01*
X421512Y6227140D01*
X921512Y4625924D02*
G01*
X1764842Y5469254D01*
X3041853Y5469254D01*
X3466744Y5894146D01*
X1816100Y7048500D02*
G01*
X1306576Y7048500D01*
X1068451Y6810375D01*
X421512Y5105933D02*
G01*
X441502Y5105933D01*
X921512Y4625924D01*
X921512Y3984675D02*
G01*
X421512Y3984675D01*
X1905000Y5105400D02*
G01*
X921512Y4121912D01*
X921512Y3984675D01*
X921512Y3984675D02*
G01*
X921512Y3504666D01*
X3429000Y4343400D02*
G01*
X3112338Y4026738D01*
X2585897Y4026738D01*
X2258822Y4353813D01*
X2258822Y4417161D01*
X921512Y2820644D02*
G01*
X1259179Y2820644D01*
X1953513Y3514979D01*
X421512Y2863469D02*
G01*
X878687Y2863469D01*
X921512Y2820644D01*
X921512Y2383459D02*
G01*
X921512Y2820644D01*
X2888995Y3539489D02*
G01*
X2862224Y3566261D01*
X921512Y1742236D02*
G01*
X1359179Y1742236D01*
X2888995Y3272053D01*
X2888995Y3539489D01*
X2888995Y3539489D02*
G01*
X2989275Y3539489D01*
X3539591Y4089806D01*
X3539591Y4994808D01*
X3429000Y5105400D01*
X921512Y1742236D02*
G01*
X421512Y1742236D01*
X921512Y1742236D02*
G01*
X921512Y1262227D01*
X1905000Y4302988D02*
G01*
X2286000Y4683988D01*
X2286000Y5126964D01*
X2415793Y5256758D01*
X3418027Y5256758D01*
X3624884Y5049901D01*
X1905000Y4302988D02*
G01*
X1905000Y4245584D01*
X1905000Y4343400D02*
G01*
X1905000Y4302988D01*
X421512Y621004D02*
G01*
X901522Y140995D01*
X921512Y140995D01*
X1905000Y4245584D02*
G01*
X921359Y3261944D01*
X658190Y3261944D01*
X99847Y2703601D01*
X99847Y942670D01*
X421512Y621004D01*
X419100Y8839200D02*
G01*
X967968Y8290331D01*
X1524863Y8290331D01*
X673100Y8839200D02*
G01*
X1079500Y8432800D01*
X2026437Y8432800D01*
X927100Y8839200D02*
G01*
X1243812Y8522487D01*
X2701721Y8522487D01*
X1181100Y8839200D02*
G01*
X1426311Y8593988D01*
X3290163Y8593988D01*
X2075230Y5907354D02*
G01*
X2187778Y6019901D01*
X3051175Y6019901D01*
X3086100Y6054826D01*
X3086100Y7810500D02*
G01*
X2505608Y7230008D01*
X2107311Y7230008D01*
X1928698Y7051395D01*
X1928698Y6970445D01*
X1745538Y6787286D01*
X1612036Y6787286D01*
X2439111Y7761630D02*
G01*
X2439111Y7815757D01*
X2583891Y7960537D01*
X3329381Y7960537D01*
X3438042Y7851876D01*
X3438042Y7752435D01*
X3393668Y7708061D01*
X3188538Y7708061D01*
X3086100Y7810500D01*
X2930042Y7156322D02*
G01*
X3371418Y7156322D01*
X3438626Y7089114D01*
X3438626Y6505016D01*
X3388995Y6455384D01*
X2070100Y7048500D02*
G01*
X2177922Y7156322D01*
X2930042Y7156322D01*
X2930042Y7156322D02*
G01*
X2930042Y6980072D01*
X2908858Y6958888D01*
X1689100Y8839200D02*
G01*
X1589786Y8938513D01*
X115036Y8938513D01*
X65506Y8888984D01*
X65506Y6427698D01*
X948105Y5545099D01*
X2079599Y5545099D01*
X2697835Y5363845D02*
G01*
X3238169Y5363845D01*
X3572560Y5698236D01*
X3572560Y8598636D01*
X3340100Y8831097D01*
X3340100Y8859494D01*
X3253003Y8946591D01*
X2050491Y8946591D01*
X1943100Y8839200D01*
X3227298Y5449747D02*
G01*
X3531793Y5754243D01*
X3531793Y8437702D01*
X3255746Y8713749D01*
X2322550Y8713749D01*
X2197100Y8839200D01*
X2100478Y3685539D02*
G01*
X2100478Y3396589D01*
X1724329Y3020440D01*
X1724329Y2991281D01*
X3203600Y3933164D02*
G01*
X2955975Y3685539D01*
X2100478Y3685539D01*
X3342995Y3985285D02*
G01*
X3336569Y3991711D01*
X3179343Y3991711D01*
X3172917Y3985285D01*
X2517114Y3985285D01*
X2159000Y4343400D01*
D11*
G01*
X221513Y7989595D03*
G01*
X921512Y7989595D03*
G01*
X421512Y8469604D03*
G01*
X221513Y6868388D03*
G01*
X921512Y6868388D03*
G01*
X421512Y7348397D03*
G01*
X221513Y5747130D03*
G01*
X921512Y5747130D03*
G01*
X421512Y6227140D03*
G01*
X221513Y4625924D03*
G01*
X921512Y4625924D03*
G01*
X421512Y5105933D03*
G01*
X221513Y3504666D03*
G01*
X921512Y3504666D03*
G01*
X421512Y3984675D03*
G01*
X221513Y2383459D03*
G01*
X921512Y2383459D03*
G01*
X421512Y2863469D03*
G01*
X221513Y1262227D03*
G01*
X921512Y1262227D03*
G01*
X421512Y1742236D03*
G01*
X221513Y140995D03*
G01*
X921512Y140995D03*
G01*
X421512Y621004D03*
D12*
G01*
X3276600Y685800D03*
G01*
X3022600Y685800D03*
G01*
X3276600Y939800D03*
G01*
X3022600Y939800D03*
G01*
X3276600Y1193800D03*
G01*
X3022600Y1193800D03*
G01*
X3276600Y1447800D03*
G01*
X3022600Y1447800D03*
G01*
X3276600Y1701800D03*
G01*
X3022600Y1701800D03*
D13*
G01*
X165100Y8839200D03*
G01*
X419100Y8839200D03*
G01*
X673100Y8839200D03*
G01*
X927100Y8839200D03*
G01*
X1181100Y8839200D03*
G01*
X1435100Y8839200D03*
G01*
X1689100Y8839200D03*
G01*
X1943100Y8839200D03*
G01*
X2197100Y8839200D03*
G01*
X2451100Y8839200D03*
G01*
X2705100Y8839200D03*
G01*
X2959100Y8839200D03*
G01*
X3213100Y8839200D03*
G01*
X3467100Y8839200D03*
G01*
X3467100Y10363200D03*
G01*
X3213100Y10363200D03*
G01*
X2959100Y10363200D03*
G01*
X2705100Y10363200D03*
G01*
X2451100Y10363200D03*
G01*
X2197100Y10363200D03*
G01*
X1943100Y10363200D03*
G01*
X1689100Y10363200D03*
G01*
X1435100Y10363200D03*
G01*
X1181100Y10363200D03*
G01*
X927100Y10363200D03*
G01*
X673100Y10363200D03*
G01*
X419100Y10363200D03*
G01*
X165100Y10363200D03*
D14*
G01*
X2165350Y438175D03*
G01*
X2165350Y692175D03*
G01*
X2165350Y946175D03*
D15*
G01*
X1816100Y7048500D03*
D16*
G01*
X2070100Y7048500D03*
G01*
X2324100Y7048500D03*
G01*
X2578100Y7048500D03*
G01*
X2832100Y7048500D03*
G01*
X3086100Y7048500D03*
G01*
X3340100Y7048500D03*
G01*
X3340100Y7810500D03*
G01*
X3086100Y7810500D03*
G01*
X2832100Y7810500D03*
G01*
X2578100Y7810500D03*
G01*
X2324100Y7810500D03*
G01*
X2070100Y7810500D03*
G01*
X1816100Y7810500D03*
D15*
G01*
X1905000Y4343400D03*
D16*
G01*
X2159000Y4343400D03*
G01*
X2413000Y4343400D03*
G01*
X2667000Y4343400D03*
G01*
X2921000Y4343400D03*
G01*
X3175000Y4343400D03*
G01*
X3429000Y4343400D03*
G01*
X3429000Y5105400D03*
G01*
X3175000Y5105400D03*
G01*
X2921000Y5105400D03*
G01*
X2667000Y5105400D03*
G01*
X2413000Y5105400D03*
G01*
X2159000Y5105400D03*
G01*
X1905000Y5105400D03*
D17*
G01*
X1589760Y6103721D03*
G01*
X2866390Y6116218D03*
G01*
X3473246Y6122822D03*
G01*
X3226028Y6661327D03*
G01*
X2094484Y6421628D03*
G01*
X2703525Y6129934D03*
G01*
X1529664Y6558737D03*
G01*
X2104212Y3317519D03*
G01*
X1496110Y2764561D03*
G01*
X2991586Y4085310D03*
G01*
X1446606Y1917700D03*
G01*
X1865655Y1338148D03*
G01*
X2030501Y6554851D03*
G01*
X2848508Y5905703D03*
G01*
X3466744Y5894146D03*
G01*
X1068451Y6810375D03*
G01*
X2258822Y4417161D03*
G01*
X1953513Y3514979D03*
G01*
X2862224Y3566261D03*
G01*
X3624884Y5049901D03*
G01*
X1524863Y8290331D03*
G01*
X2026437Y8432800D03*
G01*
X2701721Y8522487D03*
G01*
X3290163Y8593988D03*
G01*
X2075230Y5907354D03*
G01*
X3086100Y6054826D03*
G01*
X1612036Y6787286D03*
G01*
X2439111Y7761630D03*
G01*
X3388995Y6455384D03*
G01*
X2908858Y6958888D03*
G01*
X2079599Y5545099D03*
G01*
X2697835Y5363845D03*
G01*
X3227298Y5449747D03*
G01*
X1724329Y2991281D03*
G01*
X2100478Y3685539D03*
G01*
X3203600Y3933164D03*
G01*
X3342995Y3985285D03*
M02*
