G04 Layer: TopPasteMaskLayer*
G04 EasyEDA v6.5.22, 2023-04-13 12:14:21*
G04 8c6dcb5ec9fe4ba2bbc49dbc1e847b49,f016fa541b524367aba1ea0f7d3472e8,10*
G04 Gerber Generator version 0.2*
G04 Scale: 100 percent, Rotated: No, Reflected: No *
G04 Dimensions in millimeters *
G04 leading zeros omitted , absolute positions ,4 integer and 5 decimal *
%FSLAX45Y45*%
%MOMM*%

%ADD10R,0.8000X0.9000*%
%ADD11R,0.9500X1.1500*%

%LPD*%
G36*
X1561439Y1664258D02*
G01*
X1556461Y1659229D01*
X1556461Y1636471D01*
X1593443Y1636471D01*
X1593443Y1603451D01*
X1556461Y1603451D01*
X1556461Y1579270D01*
X1561439Y1574241D01*
X1641449Y1574241D01*
X1646428Y1579270D01*
X1646428Y1659229D01*
X1641449Y1664258D01*
G37*
G36*
X1402435Y1664258D02*
G01*
X1397457Y1659229D01*
X1397457Y1579270D01*
X1402435Y1574241D01*
X1481429Y1574241D01*
X1486458Y1579270D01*
X1486458Y1603451D01*
X1448460Y1603451D01*
X1448460Y1636471D01*
X1486458Y1636471D01*
X1486458Y1659229D01*
X1481429Y1664258D01*
G37*
G36*
X1639722Y8477808D02*
G01*
X1634693Y8472779D01*
X1634693Y8450021D01*
X1671726Y8450021D01*
X1671726Y8417001D01*
X1634693Y8417001D01*
X1634693Y8392820D01*
X1639722Y8387791D01*
X1719681Y8387791D01*
X1724710Y8392820D01*
X1724710Y8472779D01*
X1719681Y8477808D01*
G37*
G36*
X1480718Y8477808D02*
G01*
X1475689Y8472779D01*
X1475689Y8392820D01*
X1480718Y8387791D01*
X1559712Y8387791D01*
X1564690Y8392820D01*
X1564690Y8417001D01*
X1526692Y8417001D01*
X1526692Y8450021D01*
X1564690Y8450021D01*
X1564690Y8472779D01*
X1559712Y8477808D01*
G37*
G36*
X2228138Y8477808D02*
G01*
X2223160Y8472779D01*
X2223160Y8450021D01*
X2260142Y8450021D01*
X2260142Y8417001D01*
X2223160Y8417001D01*
X2223160Y8392820D01*
X2228138Y8387791D01*
X2308148Y8387791D01*
X2313127Y8392820D01*
X2313127Y8472779D01*
X2308148Y8477808D01*
G37*
G36*
X2069134Y8477808D02*
G01*
X2064156Y8472779D01*
X2064156Y8392820D01*
X2069134Y8387791D01*
X2148128Y8387791D01*
X2153158Y8392820D01*
X2153158Y8417001D01*
X2115159Y8417001D01*
X2115159Y8450021D01*
X2153158Y8450021D01*
X2153158Y8472779D01*
X2148128Y8477808D01*
G37*
G36*
X2816555Y8477808D02*
G01*
X2811576Y8472779D01*
X2811576Y8450021D01*
X2848559Y8450021D01*
X2848559Y8417001D01*
X2811576Y8417001D01*
X2811576Y8392820D01*
X2816555Y8387791D01*
X2896565Y8387791D01*
X2901543Y8392820D01*
X2901543Y8472779D01*
X2896565Y8477808D01*
G37*
G36*
X2657551Y8477808D02*
G01*
X2652572Y8472779D01*
X2652572Y8392820D01*
X2657551Y8387791D01*
X2736545Y8387791D01*
X2741574Y8392820D01*
X2741574Y8417001D01*
X2703576Y8417001D01*
X2703576Y8450021D01*
X2741574Y8450021D01*
X2741574Y8472779D01*
X2736545Y8477808D01*
G37*
G36*
X3405022Y8477808D02*
G01*
X3399993Y8472779D01*
X3399993Y8450021D01*
X3436975Y8450021D01*
X3436975Y8417001D01*
X3399993Y8417001D01*
X3399993Y8392820D01*
X3405022Y8387791D01*
X3484981Y8387791D01*
X3490010Y8392820D01*
X3490010Y8472779D01*
X3484981Y8477808D01*
G37*
G36*
X3246018Y8477808D02*
G01*
X3240989Y8472779D01*
X3240989Y8392820D01*
X3246018Y8387791D01*
X3325012Y8387791D01*
X3329990Y8392820D01*
X3329990Y8417001D01*
X3291992Y8417001D01*
X3291992Y8450021D01*
X3329990Y8450021D01*
X3329990Y8472779D01*
X3325012Y8477808D01*
G37*
G36*
X1639722Y8103158D02*
G01*
X1634693Y8098129D01*
X1634693Y8075371D01*
X1671726Y8075371D01*
X1671726Y8042351D01*
X1634693Y8042351D01*
X1634693Y8018170D01*
X1639722Y8013141D01*
X1719681Y8013141D01*
X1724710Y8018170D01*
X1724710Y8098129D01*
X1719681Y8103158D01*
G37*
G36*
X1480718Y8103158D02*
G01*
X1475689Y8098129D01*
X1475689Y8018170D01*
X1480718Y8013141D01*
X1559712Y8013141D01*
X1564690Y8018170D01*
X1564690Y8042351D01*
X1526692Y8042351D01*
X1526692Y8075371D01*
X1564690Y8075371D01*
X1564690Y8098129D01*
X1559712Y8103158D01*
G37*
G36*
X2228138Y8103158D02*
G01*
X2223109Y8098129D01*
X2223109Y8075371D01*
X2260142Y8075371D01*
X2260142Y8042351D01*
X2223109Y8042351D01*
X2223109Y8018170D01*
X2228138Y8013141D01*
X2308148Y8013141D01*
X2313127Y8018170D01*
X2313127Y8098129D01*
X2308148Y8103158D01*
G37*
G36*
X2069134Y8103158D02*
G01*
X2064156Y8098129D01*
X2064156Y8018170D01*
X2069134Y8013141D01*
X2148128Y8013141D01*
X2153158Y8018170D01*
X2153158Y8042351D01*
X2115159Y8042351D01*
X2115159Y8075371D01*
X2153158Y8075371D01*
X2153158Y8098129D01*
X2148128Y8103158D01*
G37*
G36*
X2816555Y8103158D02*
G01*
X2811576Y8098129D01*
X2811576Y8075371D01*
X2848559Y8075371D01*
X2848559Y8042351D01*
X2811576Y8042351D01*
X2811576Y8018170D01*
X2816555Y8013141D01*
X2896565Y8013141D01*
X2901543Y8018170D01*
X2901543Y8098129D01*
X2896565Y8103158D01*
G37*
G36*
X2657551Y8103158D02*
G01*
X2652572Y8098129D01*
X2652572Y8018170D01*
X2657551Y8013141D01*
X2736545Y8013141D01*
X2741574Y8018170D01*
X2741574Y8042351D01*
X2703576Y8042351D01*
X2703576Y8075371D01*
X2741574Y8075371D01*
X2741574Y8098129D01*
X2736545Y8103158D01*
G37*
G36*
X3405022Y8103158D02*
G01*
X3399993Y8098129D01*
X3399993Y8075371D01*
X3436975Y8075371D01*
X3436975Y8042351D01*
X3399993Y8042351D01*
X3399993Y8018170D01*
X3405022Y8013141D01*
X3484981Y8013141D01*
X3490010Y8018170D01*
X3490010Y8098129D01*
X3484981Y8103158D01*
G37*
G36*
X3246018Y8103158D02*
G01*
X3240989Y8098129D01*
X3240989Y8018170D01*
X3246018Y8013141D01*
X3325012Y8013141D01*
X3329990Y8018170D01*
X3329990Y8042351D01*
X3291992Y8042351D01*
X3291992Y8075371D01*
X3329990Y8075371D01*
X3329990Y8098129D01*
X3325012Y8103158D01*
G37*
G36*
X1576222Y6693458D02*
G01*
X1571193Y6688429D01*
X1571193Y6665671D01*
X1608226Y6665671D01*
X1608226Y6632651D01*
X1571193Y6632651D01*
X1571193Y6608470D01*
X1576222Y6603441D01*
X1656181Y6603441D01*
X1661210Y6608470D01*
X1661210Y6688429D01*
X1656181Y6693458D01*
G37*
G36*
X1417218Y6693458D02*
G01*
X1412189Y6688429D01*
X1412189Y6608470D01*
X1417218Y6603441D01*
X1496212Y6603441D01*
X1501190Y6608470D01*
X1501190Y6632651D01*
X1463192Y6632651D01*
X1463192Y6665671D01*
X1501190Y6665671D01*
X1501190Y6688429D01*
X1496212Y6693458D01*
G37*
G36*
X2194458Y6693458D02*
G01*
X2189429Y6688429D01*
X2189429Y6665671D01*
X2226411Y6665671D01*
X2226411Y6632651D01*
X2189429Y6632651D01*
X2189429Y6608470D01*
X2194458Y6603441D01*
X2274417Y6603441D01*
X2279446Y6608470D01*
X2279446Y6688429D01*
X2274417Y6693458D01*
G37*
G36*
X2035454Y6693458D02*
G01*
X2030425Y6688429D01*
X2030425Y6608470D01*
X2035454Y6603441D01*
X2114448Y6603441D01*
X2119426Y6608470D01*
X2119426Y6632651D01*
X2081428Y6632651D01*
X2081428Y6665671D01*
X2119426Y6665671D01*
X2119426Y6688429D01*
X2114448Y6693458D01*
G37*
G36*
X2812643Y6693458D02*
G01*
X2807665Y6688429D01*
X2807665Y6665671D01*
X2844647Y6665671D01*
X2844647Y6632651D01*
X2807665Y6632651D01*
X2807665Y6608470D01*
X2812643Y6603441D01*
X2892653Y6603441D01*
X2897682Y6608470D01*
X2897682Y6688429D01*
X2892653Y6693458D01*
G37*
G36*
X2653639Y6693458D02*
G01*
X2648661Y6688429D01*
X2648661Y6608470D01*
X2653639Y6603441D01*
X2732684Y6603441D01*
X2737662Y6608470D01*
X2737662Y6632651D01*
X2699664Y6632651D01*
X2699664Y6665671D01*
X2737662Y6665671D01*
X2737662Y6688429D01*
X2732684Y6693458D01*
G37*
G36*
X3430879Y6693458D02*
G01*
X3425901Y6688429D01*
X3425901Y6665671D01*
X3462883Y6665671D01*
X3462883Y6632651D01*
X3425901Y6632651D01*
X3425901Y6608470D01*
X3430879Y6603441D01*
X3510889Y6603441D01*
X3515918Y6608470D01*
X3515918Y6688429D01*
X3510889Y6693458D01*
G37*
G36*
X3271875Y6693458D02*
G01*
X3266897Y6688429D01*
X3266897Y6608470D01*
X3271875Y6603441D01*
X3350920Y6603441D01*
X3355898Y6608470D01*
X3355898Y6632651D01*
X3317900Y6632651D01*
X3317900Y6665671D01*
X3355898Y6665671D01*
X3355898Y6688429D01*
X3350920Y6693458D01*
G37*
G36*
X1576222Y5899708D02*
G01*
X1571193Y5894679D01*
X1571193Y5871921D01*
X1608226Y5871921D01*
X1608226Y5838901D01*
X1571193Y5838901D01*
X1571193Y5814720D01*
X1576222Y5809691D01*
X1656181Y5809691D01*
X1661210Y5814720D01*
X1661210Y5894679D01*
X1656181Y5899708D01*
G37*
G36*
X1417218Y5899708D02*
G01*
X1412189Y5894679D01*
X1412189Y5814720D01*
X1417218Y5809691D01*
X1496212Y5809691D01*
X1501190Y5814720D01*
X1501190Y5838901D01*
X1463192Y5838901D01*
X1463192Y5871921D01*
X1501190Y5871921D01*
X1501190Y5894679D01*
X1496212Y5899708D01*
G37*
G36*
X2194458Y5861608D02*
G01*
X2189429Y5856579D01*
X2189429Y5833821D01*
X2226411Y5833821D01*
X2226411Y5800801D01*
X2189429Y5800801D01*
X2189429Y5776620D01*
X2194458Y5771591D01*
X2274417Y5771591D01*
X2279446Y5776620D01*
X2279446Y5856579D01*
X2274417Y5861608D01*
G37*
G36*
X2035454Y5861608D02*
G01*
X2030425Y5856579D01*
X2030425Y5776620D01*
X2035454Y5771591D01*
X2114448Y5771591D01*
X2119426Y5776620D01*
X2119426Y5800801D01*
X2081428Y5800801D01*
X2081428Y5833821D01*
X2119426Y5833821D01*
X2119426Y5856579D01*
X2114448Y5861608D01*
G37*
G36*
X2812643Y5861608D02*
G01*
X2807665Y5856579D01*
X2807665Y5833821D01*
X2844647Y5833821D01*
X2844647Y5800801D01*
X2807665Y5800801D01*
X2807665Y5776620D01*
X2812643Y5771591D01*
X2892653Y5771591D01*
X2897682Y5776620D01*
X2897682Y5856579D01*
X2892653Y5861608D01*
G37*
G36*
X2653690Y5861608D02*
G01*
X2648661Y5856579D01*
X2648661Y5776620D01*
X2653690Y5771591D01*
X2732684Y5771591D01*
X2737662Y5776620D01*
X2737662Y5800801D01*
X2699664Y5800801D01*
X2699664Y5833821D01*
X2737662Y5833821D01*
X2737662Y5856579D01*
X2732684Y5861608D01*
G37*
G36*
X3430879Y5848908D02*
G01*
X3425901Y5843879D01*
X3425901Y5821121D01*
X3462883Y5821121D01*
X3462883Y5788101D01*
X3425901Y5788101D01*
X3425901Y5763920D01*
X3430879Y5758891D01*
X3510889Y5758891D01*
X3515918Y5763920D01*
X3515918Y5843879D01*
X3510889Y5848908D01*
G37*
G36*
X3271875Y5848908D02*
G01*
X3266897Y5843879D01*
X3266897Y5763920D01*
X3271875Y5758891D01*
X3350920Y5758891D01*
X3355898Y5763920D01*
X3355898Y5788101D01*
X3317900Y5788101D01*
X3317900Y5821121D01*
X3355898Y5821121D01*
X3355898Y5843879D01*
X3350920Y5848908D01*
G37*
G36*
X1576222Y5500166D02*
G01*
X1571193Y5495137D01*
X1571193Y5472379D01*
X1608226Y5472379D01*
X1608226Y5439359D01*
X1571193Y5439359D01*
X1571193Y5415178D01*
X1576222Y5410149D01*
X1656181Y5410149D01*
X1661210Y5415178D01*
X1661210Y5495137D01*
X1656181Y5500166D01*
G37*
G36*
X1417218Y5500166D02*
G01*
X1412189Y5495137D01*
X1412189Y5415178D01*
X1417218Y5410149D01*
X1496212Y5410149D01*
X1501190Y5415178D01*
X1501190Y5439359D01*
X1463192Y5439359D01*
X1463192Y5472379D01*
X1501190Y5472379D01*
X1501190Y5495137D01*
X1496212Y5500166D01*
G37*
G36*
X2194458Y5500166D02*
G01*
X2189429Y5495137D01*
X2189429Y5472379D01*
X2226411Y5472379D01*
X2226411Y5439359D01*
X2189429Y5439359D01*
X2189429Y5415178D01*
X2194458Y5410149D01*
X2274417Y5410149D01*
X2279446Y5415178D01*
X2279446Y5495137D01*
X2274417Y5500166D01*
G37*
G36*
X2035454Y5500166D02*
G01*
X2030425Y5495137D01*
X2030425Y5415178D01*
X2035454Y5410149D01*
X2114448Y5410149D01*
X2119426Y5415178D01*
X2119426Y5439359D01*
X2081428Y5439359D01*
X2081428Y5472379D01*
X2119426Y5472379D01*
X2119426Y5495137D01*
X2114448Y5500166D01*
G37*
G36*
X2812643Y5500166D02*
G01*
X2807665Y5495137D01*
X2807665Y5472379D01*
X2844647Y5472379D01*
X2844647Y5439359D01*
X2807665Y5439359D01*
X2807665Y5415178D01*
X2812643Y5410149D01*
X2892653Y5410149D01*
X2897682Y5415178D01*
X2897682Y5495137D01*
X2892653Y5500166D01*
G37*
G36*
X2653639Y5500166D02*
G01*
X2648661Y5495137D01*
X2648661Y5415178D01*
X2653639Y5410149D01*
X2732684Y5410149D01*
X2737662Y5415178D01*
X2737662Y5439359D01*
X2699664Y5439359D01*
X2699664Y5472379D01*
X2737662Y5472379D01*
X2737662Y5495137D01*
X2732684Y5500166D01*
G37*
G36*
X3430879Y5500166D02*
G01*
X3425901Y5495137D01*
X3425901Y5472379D01*
X3462883Y5472379D01*
X3462883Y5439359D01*
X3425901Y5439359D01*
X3425901Y5415178D01*
X3430879Y5410149D01*
X3510889Y5410149D01*
X3515918Y5415178D01*
X3515918Y5495137D01*
X3510889Y5500166D01*
G37*
G36*
X3271875Y5500166D02*
G01*
X3266897Y5495137D01*
X3266897Y5415178D01*
X3271875Y5410149D01*
X3350920Y5410149D01*
X3355898Y5415178D01*
X3355898Y5439359D01*
X3317900Y5439359D01*
X3317900Y5472379D01*
X3355898Y5472379D01*
X3355898Y5495137D01*
X3350920Y5500166D01*
G37*
G36*
X2432456Y2639720D02*
G01*
X2427427Y2634742D01*
X2427427Y2611932D01*
X2464409Y2611932D01*
X2464409Y2578912D01*
X2427427Y2578912D01*
X2427427Y2554732D01*
X2432456Y2549702D01*
X2512415Y2549702D01*
X2517444Y2554732D01*
X2517444Y2634742D01*
X2512415Y2639720D01*
G37*
G36*
X2273452Y2639720D02*
G01*
X2268423Y2634742D01*
X2268423Y2554732D01*
X2273452Y2549702D01*
X2352446Y2549702D01*
X2357424Y2554732D01*
X2357424Y2578912D01*
X2319426Y2578912D01*
X2319426Y2611932D01*
X2357424Y2611932D01*
X2357424Y2634742D01*
X2352446Y2639720D01*
G37*
G36*
X2363622Y2077008D02*
G01*
X2358593Y2071979D01*
X2358593Y2049221D01*
X2395575Y2049221D01*
X2395575Y2016201D01*
X2358593Y2016201D01*
X2358593Y1992020D01*
X2363622Y1986991D01*
X2443581Y1986991D01*
X2448610Y1992020D01*
X2448610Y2071979D01*
X2443581Y2077008D01*
G37*
G36*
X2204618Y2077008D02*
G01*
X2199589Y2071979D01*
X2199589Y1992020D01*
X2204618Y1986991D01*
X2283612Y1986991D01*
X2288590Y1992020D01*
X2288590Y2016201D01*
X2250592Y2016201D01*
X2250592Y2049221D01*
X2288590Y2049221D01*
X2288590Y2071979D01*
X2283612Y2077008D01*
G37*
G36*
X1563522Y2639720D02*
G01*
X1558493Y2634742D01*
X1558493Y2611932D01*
X1595526Y2611932D01*
X1595526Y2578912D01*
X1558493Y2578912D01*
X1558493Y2554732D01*
X1563522Y2549702D01*
X1643481Y2549702D01*
X1648510Y2554732D01*
X1648510Y2634742D01*
X1643481Y2639720D01*
G37*
G36*
X1404518Y2639720D02*
G01*
X1399489Y2634742D01*
X1399489Y2554732D01*
X1404518Y2549702D01*
X1483512Y2549702D01*
X1488490Y2554732D01*
X1488490Y2578912D01*
X1450492Y2578912D01*
X1450492Y2611932D01*
X1488490Y2611932D01*
X1488490Y2634742D01*
X1483512Y2639720D01*
G37*
G36*
X1563522Y3093008D02*
G01*
X1558493Y3087979D01*
X1558493Y3065221D01*
X1595526Y3065221D01*
X1595526Y3032201D01*
X1558493Y3032201D01*
X1558493Y3008020D01*
X1563522Y3002991D01*
X1643481Y3002991D01*
X1648510Y3008020D01*
X1648510Y3087979D01*
X1643481Y3093008D01*
G37*
G36*
X1404518Y3093008D02*
G01*
X1399489Y3087979D01*
X1399489Y3008020D01*
X1404518Y3002991D01*
X1483512Y3002991D01*
X1488490Y3008020D01*
X1488490Y3032201D01*
X1450492Y3032201D01*
X1450492Y3065221D01*
X1488490Y3065221D01*
X1488490Y3087979D01*
X1483512Y3093008D01*
G37*
G36*
X2194966Y3093008D02*
G01*
X2189937Y3087979D01*
X2189937Y3065221D01*
X2226970Y3065221D01*
X2226970Y3032201D01*
X2189937Y3032201D01*
X2189937Y3008020D01*
X2194966Y3002991D01*
X2274925Y3002991D01*
X2279954Y3008020D01*
X2279954Y3087979D01*
X2274925Y3093008D01*
G37*
G36*
X2035962Y3093008D02*
G01*
X2030933Y3087979D01*
X2030933Y3008020D01*
X2035962Y3002991D01*
X2114956Y3002991D01*
X2119934Y3008020D01*
X2119934Y3032201D01*
X2081936Y3032201D01*
X2081936Y3065221D01*
X2119934Y3065221D01*
X2119934Y3087979D01*
X2114956Y3093008D01*
G37*
G36*
X2826410Y3093008D02*
G01*
X2821381Y3087979D01*
X2821381Y3065221D01*
X2858363Y3065221D01*
X2858363Y3032201D01*
X2821381Y3032201D01*
X2821381Y3008020D01*
X2826410Y3002991D01*
X2906369Y3002991D01*
X2911398Y3008020D01*
X2911398Y3087979D01*
X2906369Y3093008D01*
G37*
G36*
X2667406Y3093008D02*
G01*
X2662377Y3087979D01*
X2662377Y3008020D01*
X2667406Y3002991D01*
X2746400Y3002991D01*
X2751378Y3008020D01*
X2751378Y3032201D01*
X2713380Y3032201D01*
X2713380Y3065221D01*
X2751378Y3065221D01*
X2751378Y3087979D01*
X2746400Y3093008D01*
G37*
G36*
X3457854Y3105708D02*
G01*
X3452825Y3100679D01*
X3452825Y3077921D01*
X3489858Y3077921D01*
X3489858Y3044901D01*
X3452825Y3044901D01*
X3452825Y3020720D01*
X3457854Y3015691D01*
X3537813Y3015691D01*
X3542842Y3020720D01*
X3542842Y3100679D01*
X3537813Y3105708D01*
G37*
G36*
X3298850Y3105708D02*
G01*
X3293821Y3100679D01*
X3293821Y3020720D01*
X3298850Y3015691D01*
X3377844Y3015691D01*
X3382822Y3020720D01*
X3382822Y3044901D01*
X3344824Y3044901D01*
X3344824Y3077921D01*
X3382822Y3077921D01*
X3382822Y3100679D01*
X3377844Y3105708D01*
G37*
G36*
X2363622Y1664258D02*
G01*
X2358593Y1659229D01*
X2358593Y1636471D01*
X2395575Y1636471D01*
X2395575Y1603451D01*
X2358593Y1603451D01*
X2358593Y1579270D01*
X2363622Y1574241D01*
X2443581Y1574241D01*
X2448610Y1579270D01*
X2448610Y1659229D01*
X2443581Y1664258D01*
G37*
G36*
X2204618Y1664258D02*
G01*
X2199589Y1659229D01*
X2199589Y1579270D01*
X2204618Y1574241D01*
X2283612Y1574241D01*
X2288590Y1579270D01*
X2288590Y1603451D01*
X2250592Y1603451D01*
X2250592Y1636471D01*
X2288590Y1636471D01*
X2288590Y1659229D01*
X2283612Y1664258D01*
G37*
G36*
X1563522Y3855008D02*
G01*
X1558493Y3849979D01*
X1558493Y3827221D01*
X1595526Y3827221D01*
X1595526Y3794201D01*
X1558493Y3794201D01*
X1558493Y3770020D01*
X1563522Y3764991D01*
X1643481Y3764991D01*
X1648510Y3770020D01*
X1648510Y3849979D01*
X1643481Y3855008D01*
G37*
G36*
X1404518Y3855008D02*
G01*
X1399489Y3849979D01*
X1399489Y3770020D01*
X1404518Y3764991D01*
X1483512Y3764991D01*
X1488490Y3770020D01*
X1488490Y3794201D01*
X1450492Y3794201D01*
X1450492Y3827221D01*
X1488490Y3827221D01*
X1488490Y3849979D01*
X1483512Y3855008D01*
G37*
G36*
X2194966Y3855008D02*
G01*
X2189937Y3849979D01*
X2189937Y3827221D01*
X2226970Y3827221D01*
X2226970Y3794201D01*
X2189937Y3794201D01*
X2189937Y3770020D01*
X2194966Y3764991D01*
X2274925Y3764991D01*
X2279954Y3770020D01*
X2279954Y3849979D01*
X2274925Y3855008D01*
G37*
G36*
X2035962Y3855008D02*
G01*
X2030933Y3849979D01*
X2030933Y3770020D01*
X2035962Y3764991D01*
X2114956Y3764991D01*
X2119934Y3770020D01*
X2119934Y3794201D01*
X2081936Y3794201D01*
X2081936Y3827221D01*
X2119934Y3827221D01*
X2119934Y3849979D01*
X2114956Y3855008D01*
G37*
G36*
X2826410Y3855008D02*
G01*
X2821381Y3849979D01*
X2821381Y3827221D01*
X2858414Y3827221D01*
X2858414Y3794201D01*
X2821381Y3794201D01*
X2821381Y3770020D01*
X2826410Y3764991D01*
X2906369Y3764991D01*
X2911398Y3770020D01*
X2911398Y3849979D01*
X2906369Y3855008D01*
G37*
G36*
X2667406Y3855008D02*
G01*
X2662377Y3849979D01*
X2662377Y3770020D01*
X2667406Y3764991D01*
X2746400Y3764991D01*
X2751378Y3770020D01*
X2751378Y3794201D01*
X2713380Y3794201D01*
X2713380Y3827221D01*
X2751378Y3827221D01*
X2751378Y3849979D01*
X2746400Y3855008D01*
G37*
G36*
X3457854Y3855008D02*
G01*
X3452825Y3849979D01*
X3452825Y3827221D01*
X3489858Y3827221D01*
X3489858Y3794201D01*
X3452825Y3794201D01*
X3452825Y3770020D01*
X3457854Y3764991D01*
X3537813Y3764991D01*
X3542842Y3770020D01*
X3542842Y3849979D01*
X3537813Y3855008D01*
G37*
G36*
X3298850Y3855008D02*
G01*
X3293821Y3849979D01*
X3293821Y3770020D01*
X3298850Y3764991D01*
X3377844Y3764991D01*
X3382822Y3770020D01*
X3382822Y3794201D01*
X3344824Y3794201D01*
X3344824Y3827221D01*
X3382822Y3827221D01*
X3382822Y3849979D01*
X3377844Y3855008D01*
G37*
D10*
G01*
X1594002Y2032000D03*
G01*
X1453997Y2032000D03*
G01*
X1608734Y6248400D03*
G01*
X1468729Y6248400D03*
G01*
X2226132Y6223000D03*
G01*
X2086127Y6223000D03*
G01*
X2843504Y6223507D03*
G01*
X2703525Y6223507D03*
G01*
X3460902Y6223507D03*
G01*
X3320897Y6223507D03*
G01*
X1596034Y3441700D03*
G01*
X1456029Y3441700D03*
G01*
X2226640Y3441700D03*
G01*
X2086635Y3441700D03*
G01*
X2857245Y3441700D03*
G01*
X2717241Y3441700D03*
G01*
X3487826Y3441700D03*
G01*
X3347847Y3441700D03*
D11*
G01*
X3509340Y2594737D03*
G01*
X3170859Y2594737D03*
G01*
X1430959Y1358900D03*
G01*
X1769440Y1358900D03*
M02*
